STARTFONT 2.3
FONT -FontForge-Righteous-Book-R-Normal--16-160-72-72-P-86-ISO10646-1
SIZE 16 72 72  2
FONTBOUNDINGBOX 21 20 -3 -4
COMMENT "Generated by fontforge, http://fontforge.sourceforge.net"
COMMENT "Copyright (c) 2011 by Brian J. Bonislawsky DBA Astigmatic (AOETI) (astigma@astigmatic.com), with ReservedFont Name "Righteous""
STARTPROPERTIES 40
FOUNDRY "FontForge"
FAMILY_NAME "Righteous"
WEIGHT_NAME "Book"
SLANT "R"
SETWIDTH_NAME "Normal"
ADD_STYLE_NAME ""
PIXEL_SIZE 16
POINT_SIZE 160
RESOLUTION_X 72
RESOLUTION_Y 72
SPACING "P"
AVERAGE_WIDTH 86
CHARSET_REGISTRY "ISO10646"
CHARSET_ENCODING "1"
FONTNAME_REGISTRY ""
CHARSET_COLLECTIONS "ISO8859-2 ISO8859-9 ISO8859-4 ISO10646-1"
BITS_PER_PIXEL 2
FONT_NAME "Righteous-Regular"
FACE_NAME "Righteous"
COPYRIGHT "Copyright (c) 2011 by Brian J. Bonislawsky DBA Astigmatic (AOETI) (astigma@astigmatic.com), with ReservedFont Name "Righteous""
FONT_VERSION "1.000"
FONT_ASCENT 13
FONT_DESCENT 3
UNDERLINE_POSITION -2
UNDERLINE_THICKNESS 1
X_HEIGHT 8
CAP_HEIGHT 11
RAW_ASCENT 799
RAW_DESCENT 200
NORM_SPACE 4
RELATIVE_WEIGHT 40
RELATIVE_SETWIDTH 50
SUPERSCRIPT_X 0
SUPERSCRIPT_Y 7
SUPERSCRIPT_SIZE 10
SUBSCRIPT_X 0
SUBSCRIPT_Y 2
SUBSCRIPT_SIZE 10
AVG_LOWERCASE_WIDTH 85
AVG_UPPERCASE_WIDTH 101
ENDPROPERTIES
CHARS 372
STARTCHAR space
ENCODING 32
SWIDTH 279 0
DWIDTH 4 0
BBX 1 1 0 0
BITMAP
00
ENDCHAR
STARTCHAR exclam
ENCODING 33
SWIDTH 274 0
DWIDTH 4 0
BBX 3 13 1 -1
BITMAP
50
F8
F4
F4
F4
F4
B4
B4
B0
50
B4
F4
50
ENDCHAR
STARTCHAR quotedbl
ENCODING 34
SWIDTH 409 0
DWIDTH 7 0
BBX 5 5 1 7
BITMAP
5100
F780
F780
E780
5100
ENDCHAR
STARTCHAR numbersign
ENCODING 35
SWIDTH 561 0
DWIDTH 9 0
BBX 9 9 0 1
BITMAP
014500
039E00
1BEF40
2FFF00
0B3800
3FFE00
7EF900
2CF000
044000
ENDCHAR
STARTCHAR dollar
ENCODING 36
SWIDTH 458 0
DWIDTH 7 0
BBX 7 12 0 0
BITMAP
0100
0340
0380
2FF4
7AA4
7A90
2FF4
0578
7FF4
6B90
0340
0340
ENDCHAR
STARTCHAR percent
ENCODING 37
SWIDTH 685 0
DWIDTH 11 0
BBX 11 12 0 0
BITMAP
050040
3F82C0
76C780
71CB00
76DD00
2F6C00
047540
00EBF0
01DE74
038D34
0B0EB4
0E07E0
ENDCHAR
STARTCHAR ampersand
ENCODING 38
SWIDTH 485 0
DWIDTH 8 0
BBX 6 12 1 0
BITMAP
0100
0700
2FA0
BFE0
E000
F540
BF80
F500
E000
BFE0
1BA0
0700
ENDCHAR
STARTCHAR quotesingle
ENCODING 39
SWIDTH 238 0
DWIDTH 4 0
BBX 2 5 1 7
BITMAP
50
F0
F0
E0
50
ENDCHAR
STARTCHAR parenleft
ENCODING 40
SWIDTH 351 0
DWIDTH 6 0
BBX 5 15 0 -2
BITMAP
0680
0F80
1F00
3E00
3D00
7C00
7C00
7C00
7C00
7C00
3D00
2E00
1F40
0B80
0280
ENDCHAR
STARTCHAR parenright
ENCODING 41
SWIDTH 351 0
DWIDTH 6 0
BBX 5 15 0 -2
BITMAP
6800
3E00
1F00
0F40
0B80
07C0
07C0
07C0
07C0
0B80
0B80
0F40
2E00
7D00
6400
ENDCHAR
STARTCHAR asterisk
ENCODING 42
SWIDTH 589 0
DWIDTH 9 0
BBX 8 9 1 5
BITMAP
0140
0780
5784
FFFE
BFFD
1FE0
2FF4
7DBC
2424
ENDCHAR
STARTCHAR plus
ENCODING 43
SWIDTH 485 0
DWIDTH 8 0
BBX 8 7 0 2
BITMAP
07C0
07C0
6BE8
7FFD
1BD4
07C0
0280
ENDCHAR
STARTCHAR comma
ENCODING 44
SWIDTH 264 0
DWIDTH 4 0
BBX 3 4 1 -2
BITMAP
F4
F4
74
60
ENDCHAR
STARTCHAR hyphen
ENCODING 45
SWIDTH 528 0
DWIDTH 8 0
BBX 7 3 1 4
BITMAP
AAA4
FFF8
5554
ENDCHAR
STARTCHAR period
ENCODING 46
SWIDTH 263 0
DWIDTH 4 0
BBX 3 3 1 -1
BITMAP
F4
F4
50
ENDCHAR
STARTCHAR slash
ENCODING 47
SWIDTH 490 0
DWIDTH 8 0
BBX 7 12 0 0
BITMAP
0014
007C
00B8
00F4
01F0
03D0
07C0
0B80
0F40
2E00
3D00
7C00
ENDCHAR
STARTCHAR zero
ENCODING 48
SWIDTH 642 0
DWIDTH 10 0
BBX 10 12 0 0
BITMAP
005000
0BFE00
1FEF80
3E07C0
7C02D0
7C02E0
7C02E0
7C02E0
3C03D0
2E0BC0
1FFF80
07FE00
ENDCHAR
STARTCHAR one
ENCODING 49
SWIDTH 317 0
DWIDTH 5 0
BBX 4 12 0 0
BITMAP
15
7F
7F
1F
1F
1F
1F
1F
1F
1F
1F
1F
ENDCHAR
STARTCHAR two
ENCODING 50
SWIDTH 570 0
DWIDTH 9 0
BBX 9 12 0 0
BITMAP
154000
2FFD00
2FFF00
000F40
000B40
06AF40
1FFD00
3E9400
7C0000
7D5500
7FFF40
7FFF40
ENDCHAR
STARTCHAR three
ENCODING 51
SWIDTH 586 0
DWIDTH 9 0
BBX 9 12 0 0
BITMAP
155000
7FFD00
7FFF00
000F80
000B80
0AAF40
0BFF00
06AF40
000B80
155F40
7FFF00
7FF800
ENDCHAR
STARTCHAR four
ENCODING 52
SWIDTH 630 0
DWIDTH 10 0
BBX 10 12 0 0
BITMAP
050000
1F0000
2E0F40
2E0F40
2D0F40
3D0F40
3C0F40
7D5F90
7FFFD0
6AAF90
000F40
000F40
ENDCHAR
STARTCHAR five
ENCODING 53
SWIDTH 585 0
DWIDTH 9 0
BBX 9 12 0 0
BITMAP
055500
2FFF40
2FFF40
3D0000
3D0000
3FF900
3FFF40
155B80
000780
155F80
7FFF40
7FF900
ENDCHAR
STARTCHAR six
ENCODING 54
SWIDTH 615 0
DWIDTH 10 0
BBX 10 13 0 -1
BITMAP
005000
03E000
0B8000
1F5000
2FFE00
3FAF80
7E07C0
7C03D0
7C03D0
3E0BC0
1FFF40
07FD00
005000
ENDCHAR
STARTCHAR seven
ENCODING 55
SWIDTH 516 0
DWIDTH 8 0
BBX 8 12 0 0
BITMAP
1555
BFFF
BFFE
003D
007C
00B8
00F4
01F0
02E0
03D0
07C0
0B80
ENDCHAR
STARTCHAR eight
ENCODING 56
SWIDTH 618 0
DWIDTH 10 0
BBX 10 13 0 -1
BITMAP
015400
0BFE00
1FAF40
2E0B80
2E0B80
0FFF00
1FFF40
3D0BC0
7C03D0
7C07D0
2FAF80
0BFE00
005000
ENDCHAR
STARTCHAR nine
ENCODING 57
SWIDTH 616 0
DWIDTH 10 0
BBX 10 12 0 0
BITMAP
015400
0BFE00
2FBF40
7D0BC0
7C07D0
7C07D0
7D0BC0
2FFFC0
0BFF80
001F00
007D00
01F800
ENDCHAR
STARTCHAR colon
ENCODING 58
SWIDTH 276 0
DWIDTH 4 0
BBX 3 8 1 -1
BITMAP
60
F4
B4
00
00
B4
F4
50
ENDCHAR
STARTCHAR semicolon
ENCODING 59
SWIDTH 276 0
DWIDTH 4 0
BBX 3 9 1 -2
BITMAP
60
F4
B4
00
00
B4
F8
74
60
ENDCHAR
STARTCHAR less
ENCODING 60
SWIDTH 478 0
DWIDTH 8 0
BBX 6 10 1 1
BITMAP
0180
07E0
1FC0
3F00
FC00
FD00
2F40
0BD0
02D0
0040
ENDCHAR
STARTCHAR equal
ENCODING 61
SWIDTH 539 0
DWIDTH 9 0
BBX 7 6 1 3
BITMAP
5554
FFF8
AAA4
0000
FFF8
FFF8
ENDCHAR
STARTCHAR greater
ENCODING 62
SWIDTH 478 0
DWIDTH 8 0
BBX 6 10 1 1
BITMAP
2000
F800
7E00
1F80
07E0
0BE0
2F80
BE00
B400
1000
ENDCHAR
STARTCHAR question
ENCODING 63
SWIDTH 603 0
DWIDTH 10 0
BBX 9 13 0 -1
BITMAP
155000
7FFE00
7FFF80
0007C0
0007C0
006F80
02FF40
07E400
078000
014000
078000
0BC000
014000
ENDCHAR
STARTCHAR at
ENCODING 64
SWIDTH 629 0
DWIDTH 10 0
BBX 10 10 0 -1
BITMAP
01A400
0BFF40
2D1B80
75FDD0
77ACE0
77EDD0
39AA80
1E5000
07F400
005000
ENDCHAR
STARTCHAR A
ENCODING 65
SWIDTH 673 0
DWIDTH 11 0
BBX 9 12 1 0
BITMAP
004000
1BF800
3FFE00
BD1F40
F40B80
F007C0
F007C0
F95BC0
FFFFC0
FAAFC0
F007C0
F007C0
ENDCHAR
STARTCHAR B
ENCODING 66
SWIDTH 666 0
DWIDTH 11 0
BBX 9 12 1 0
BITMAP
555000
FFFE00
FFFF40
F40BC0
F407C0
FAAF80
FFFF00
FAAF80
F407C0
F55BC0
FFFF40
FFFD00
ENDCHAR
STARTCHAR C
ENCODING 67
SWIDTH 640 0
DWIDTH 10 0
BBX 10 13 0 -1
BITMAP
001500
02FFD0
0FFFE0
2F4080
7D0000
780000
B80000
7C0000
3D0000
2F81D0
0BFFE0
02FF90
000400
ENDCHAR
STARTCHAR D
ENCODING 68
SWIDTH 653 0
DWIDTH 10 0
BBX 9 12 1 0
BITMAP
550000
FFE400
FFFD00
F46F40
F40F80
F407C0
F407C0
F407C0
F40F80
F57F00
FFFD00
FFE000
ENDCHAR
STARTCHAR E
ENCODING 69
SWIDTH 578 0
DWIDTH 9 0
BBX 8 12 1 0
BITMAP
5554
FFFE
FFFE
F400
F400
FAA0
FFF0
FA90
F400
F555
FFFE
FFFE
ENDCHAR
STARTCHAR F
ENCODING 70
SWIDTH 562 0
DWIDTH 9 0
BBX 8 12 1 0
BITMAP
5555
FFFF
FFFF
F400
F400
FA90
FFE0
FA90
F400
F400
F400
F400
ENDCHAR
STARTCHAR G
ENCODING 71
SWIDTH 665 0
DWIDTH 11 0
BBX 10 13 0 -1
BITMAP
001400
02FF90
0FFFE0
2F4180
7D0000
780000
B800A0
7C01F0
3D01F0
2F41F0
0BFFF0
02FF90
000400
ENDCHAR
STARTCHAR H
ENCODING 72
SWIDTH 689 0
DWIDTH 11 0
BBX 9 12 1 0
BITMAP
500140
F407C0
F407C0
F407C0
F407C0
FAABC0
FFFFC0
FAABC0
F407C0
F407C0
F407C0
F407C0
ENDCHAR
STARTCHAR I
ENCODING 73
SWIDTH 270 0
DWIDTH 4 0
BBX 3 12 1 0
BITMAP
50
F4
F4
F4
F4
F4
F4
F4
F4
F4
F4
F4
ENDCHAR
STARTCHAR J
ENCODING 74
SWIDTH 416 0
DWIDTH 7 0
BBX 6 12 0 0
BITMAP
0040
01E0
01E0
01E0
01E0
01E0
01E0
01E0
02E0
5BD0
FF80
B900
ENDCHAR
STARTCHAR K
ENCODING 75
SWIDTH 625 0
DWIDTH 10 0
BBX 9 12 1 0
BITMAP
500140
F40F40
F42E00
F4BC00
F5F400
F7E000
FFF000
FFF800
FD7C00
F43E00
F41F40
F40B80
ENDCHAR
STARTCHAR L
ENCODING 76
SWIDTH 562 0
DWIDTH 9 0
BBX 8 12 1 0
BITMAP
5000
F400
F400
F400
F400
F400
F400
F400
F400
F555
FFFF
FFFF
ENDCHAR
STARTCHAR M
ENCODING 77
SWIDTH 819 0
DWIDTH 13 0
BBX 11 12 1 0
BITMAP
050140
2FEFE0
BFFFF8
F4BC7C
F4B83C
F4B83C
F4B83C
F4B83C
F4B83C
F4B83C
F4B83C
F4B83C
ENDCHAR
STARTCHAR N
ENCODING 78
SWIDTH 689 0
DWIDTH 11 0
BBX 9 12 1 0
BITMAP
500140
F807C0
FD07C0
FF07C0
FF87C0
F7D7C0
F6E7C0
F4FBC0
F47FC0
F43FC0
F41FC0
F40BC0
ENDCHAR
STARTCHAR O
ENCODING 79
SWIDTH 777 0
DWIDTH 12 0
BBX 12 13 0 -1
BITMAP
001400
02FF90
0FFFF4
2F40BD
7D003E
78001F
B8001F
7C001F
3D003E
2F81FC
0BFFF4
02FF90
000400
ENDCHAR
STARTCHAR P
ENCODING 80
SWIDTH 642 0
DWIDTH 10 0
BBX 9 12 1 0
BITMAP
554000
FFF800
FFFF00
F41F80
F407C0
F407C0
F40B80
F9AF40
FFFE00
FAA400
F40000
F40000
ENDCHAR
STARTCHAR Q
ENCODING 81
SWIDTH 777 0
DWIDTH 12 0
BBX 12 15 0 -3
BITMAP
001400
02FF90
0FFFF4
2F40BD
7D003E
78001F
B8001F
7C001F
3D003E
2F81FC
0BFFF4
02FFD0
0007D0
0002F0
000050
ENDCHAR
STARTCHAR R
ENCODING 82
SWIDTH 651 0
DWIDTH 10 0
BBX 9 12 1 0
BITMAP
554000
FFF800
FFFF00
F41F80
F407C0
F407C0
F40B80
F9AF40
FFFE00
FABC00
F43E00
F41F00
ENDCHAR
STARTCHAR S
ENCODING 83
SWIDTH 610 0
DWIDTH 10 0
BBX 10 12 0 0
BITMAP
015540
1FFFC0
3FFFC0
BC0000
B80000
7EA900
2FFF40
05ABC0
0003D0
1557D0
3FFF80
3FFE00
ENDCHAR
STARTCHAR T
ENCODING 84
SWIDTH 578 0
DWIDTH 9 0
BBX 9 12 0 0
BITMAP
555540
FFFFC0
FFFFC0
02E000
01E000
01E000
01E000
01E000
01E000
01E000
01E000
01E000
ENDCHAR
STARTCHAR U
ENCODING 85
SWIDTH 673 0
DWIDTH 11 0
BBX 9 12 1 0
BITMAP
500140
F007C0
F007C0
F007C0
F007C0
F007C0
F007C0
F407C0
F40B80
BD6F40
2FFE00
0BF400
ENDCHAR
STARTCHAR V
ENCODING 86
SWIDTH 602 0
DWIDTH 10 0
BBX 10 12 0 0
BITMAP
500140
B803D0
7C07C0
3D0B80
2E0F40
1F1F00
0F6E00
0BBD00
07FC00
03F800
02F400
01F000
ENDCHAR
STARTCHAR W
ENCODING 87
SWIDTH 819 0
DWIDTH 13 0
BBX 11 12 1 0
BITMAP
501014
F4B83C
F4B83C
F4B83C
F4B83C
F4B83C
F4B83C
F4B83C
F4B83C
F8BD7C
BFFFF8
2FDFE0
ENDCHAR
STARTCHAR X
ENCODING 88
SWIDTH 608 0
DWIDTH 10 0
BBX 10 12 0 0
BITMAP
500140
BC07D0
3E0F80
1F6F00
0BFD00
03FC00
02F400
07FC00
0FBE00
1F5F40
3E0F80
BC07D0
ENDCHAR
STARTCHAR Y
ENCODING 89
SWIDTH 620 0
DWIDTH 10 0
BBX 10 12 0 0
BITMAP
100040
B802D0
B802D0
B802D0
7803D0
7D07D0
2FAF80
0BFE00
01F400
00F000
00F000
00F000
ENDCHAR
STARTCHAR Z
ENCODING 90
SWIDTH 586 0
DWIDTH 9 0
BBX 9 12 0 0
BITMAP
155540
BFFF80
BFFF00
003E00
00BC00
01F800
02F000
07D000
0BC000
1F9540
2FFFC0
7FFFC0
ENDCHAR
STARTCHAR bracketleft
ENCODING 91
SWIDTH 380 0
DWIDTH 6 0
BBX 5 15 1 -2
BITMAP
AA40
FF80
F940
F400
F400
F400
F400
F400
F400
F400
F400
F400
FA40
FF80
AA40
ENDCHAR
STARTCHAR backslash
ENCODING 92
SWIDTH 490 0
DWIDTH 8 0
BBX 8 12 0 0
BITMAP
1000
7C00
3D00
1F00
0F40
0B80
07C0
02E0
01F0
00F4
00B8
003D
ENDCHAR
STARTCHAR bracketright
ENCODING 93
SWIDTH 380 0
DWIDTH 6 0
BBX 5 15 0 -2
BITMAP
6A80
7FC0
5BC0
07C0
07C0
07C0
07C0
07C0
07C0
07C0
07C0
07C0
6BC0
7FC0
6A80
ENDCHAR
STARTCHAR asciicircum
ENCODING 94
SWIDTH 293 0
DWIDTH 5 0
BBX 5 3 0 8
BITMAP
1D00
BF40
A740
ENDCHAR
STARTCHAR underscore
ENCODING 95
SWIDTH 598 0
DWIDTH 10 0
BBX 7 3 1 -4
BITMAP
5554
7FFC
6AA8
ENDCHAR
STARTCHAR grave
ENCODING 96
SWIDTH 225 0
DWIDTH 4 0
BBX 4 3 0 8
BITMAP
70
BD
1D
ENDCHAR
STARTCHAR a
ENCODING 97
SWIDTH 607 0
DWIDTH 10 0
BBX 9 9 0 0
BITMAP
02A040
1FFEC0
3EAFC0
7C0BC0
B807C0
B807C0
7D1FC0
2FFFC0
0BF880
ENDCHAR
STARTCHAR b
ENCODING 98
SWIDTH 597 0
DWIDTH 10 0
BBX 9 12 0 0
BITMAP
680000
780000
780000
79A400
7FFE00
7FAF80
7D07C0
7C03C0
7C03C0
3E0B80
1FFF40
07FD00
ENDCHAR
STARTCHAR c
ENCODING 99
SWIDTH 521 0
DWIDTH 8 0
BBX 8 9 0 0
BITMAP
01A4
1FFD
3FAE
7C08
B800
B800
7D1D
2FFF
0BF8
ENDCHAR
STARTCHAR d
ENCODING 100
SWIDTH 606 0
DWIDTH 10 0
BBX 9 12 0 0
BITMAP
000680
0007C0
0007C0
02A7C0
1FFFC0
3EAFC0
7C0BC0
B807C0
B807C0
7D1FC0
2FFFC0
0BF880
ENDCHAR
STARTCHAR e
ENCODING 101
SWIDTH 524 0
DWIDTH 8 0
BBX 8 9 0 0
BITMAP
02A4
1FFE
3EBE
7C7C
B9F4
BBD0
7F9D
2FFF
0BF8
ENDCHAR
STARTCHAR f
ENCODING 102
SWIDTH 395 0
DWIDTH 6 0
BBX 7 13 0 0
BITMAP
0054
07F8
0FA4
2E00
6E50
BFF0
7FA0
2E00
2E00
2E00
2E00
2E00
2E00
ENDCHAR
STARTCHAR g
ENCODING 103
SWIDTH 607 0
DWIDTH 10 0
BBX 9 13 0 -4
BITMAP
02A040
1FFEC0
3EAFC0
7C0BC0
B807C0
B807C0
7D1FC0
2FFFC0
0BFFC0
001B80
01FF00
01F800
004000
ENDCHAR
STARTCHAR h
ENCODING 104
SWIDTH 562 0
DWIDTH 9 0
BBX 9 12 0 0
BITMAP
280000
7C0000
7C0000
7D5000
7FFC00
7FBE00
7D0F40
7C0F40
7C0F40
7C0F40
7C0F40
7C0F40
ENDCHAR
STARTCHAR i
ENCODING 105
SWIDTH 235 0
DWIDTH 4 0
BBX 4 12 0 0
BITMAP
7C
7D
28
14
7C
7C
7C
7C
7C
7C
7C
7C
ENDCHAR
STARTCHAR j
ENCODING 106
SWIDTH 237 0
DWIDTH 4 0
BBX 7 16 -3 -4
BITMAP
01F0
01F4
00A0
0050
01F0
01F0
01F0
01F0
01F0
01F0
01F0
01F0
02E0
7FC0
7E40
1000
ENDCHAR
STARTCHAR k
ENCODING 107
SWIDTH 539 0
DWIDTH 9 0
BBX 9 12 0 0
BITMAP
280000
7C0000
7C0000
7C0500
7C2F00
7C7C00
7CF400
7FF000
7FF800
7F7D00
7D2E00
7C0F40
ENDCHAR
STARTCHAR l
ENCODING 108
SWIDTH 235 0
DWIDTH 4 0
BBX 3 12 0 0
BITMAP
28
7C
7C
7C
7C
7C
7C
7C
7C
7C
7C
7C
ENDCHAR
STARTCHAR m
ENCODING 109
SWIDTH 762 0
DWIDTH 12 0
BBX 12 9 0 0
BITMAP
114150
7FFFF8
7EBFBD
7C3D2D
7C3D2D
7C3D2D
7C3D2D
7C3D2D
7C3D2D
ENDCHAR
STARTCHAR n
ENCODING 110
SWIDTH 562 0
DWIDTH 9 0
BBX 9 9 0 0
BITMAP
115000
7BFC00
7FBE00
7D0F40
7C0F40
7C0F40
7C0F40
7C0F40
7C0F40
ENDCHAR
STARTCHAR o
ENCODING 111
SWIDTH 579 0
DWIDTH 9 0
BBX 9 9 0 0
BITMAP
02A400
1FFE00
3EAF40
7C0B80
B807C0
B80780
7D1F80
2FFF00
07F800
ENDCHAR
STARTCHAR p
ENCODING 112
SWIDTH 608 0
DWIDTH 10 0
BBX 10 13 0 -4
BITMAP
11A400
7BFF00
7FAF80
7D03D0
7C02D0
7C03D0
7E0BC0
7FFF40
7EFD00
7C0000
7C0000
7C0000
140000
ENDCHAR
STARTCHAR q
ENCODING 113
SWIDTH 607 0
DWIDTH 10 0
BBX 9 13 0 -4
BITMAP
02A040
1FFEC0
3EAFC0
7C0BC0
B807C0
B807C0
7D1FC0
2FFFC0
0BFBC0
0007C0
0007C0
0007C0
000140
ENDCHAR
STARTCHAR r
ENCODING 114
SWIDTH 414 0
DWIDTH 7 0
BBX 7 9 0 0
BITMAP
1150
7BF4
7FA4
7D00
7C00
7C00
7C00
7C00
7C00
ENDCHAR
STARTCHAR s
ENCODING 115
SWIDTH 523 0
DWIDTH 8 0
BBX 8 9 0 0
BITMAP
0555
2FFE
7EA9
7800
3FFD
1BFF
001F
7FFE
7FF8
ENDCHAR
STARTCHAR t
ENCODING 116
SWIDTH 437 0
DWIDTH 7 0
BBX 7 12 0 0
BITMAP
2900
2D00
2D00
6E54
BFF8
BFA4
2D00
2D00
2D00
1F40
0FF8
02F8
ENDCHAR
STARTCHAR u
ENCODING 117
SWIDTH 562 0
DWIDTH 9 0
BBX 9 9 0 0
BITMAP
140500
780F40
780F40
780F40
780F40
7C0F40
3D2F40
2FFF40
0BF640
ENDCHAR
STARTCHAR v
ENCODING 118
SWIDTH 532 0
DWIDTH 9 0
BBX 9 9 0 0
BITMAP
540500
B81F40
7C2E00
3D3D00
2E7C00
0FB800
0BF400
07F000
03E000
ENDCHAR
STARTCHAR w
ENCODING 119
SWIDTH 756 0
DWIDTH 12 0
BBX 12 9 0 0
BITMAP
141414
7C3C2D
7C3C2D
7C3C2D
7C3C2D
7C3C2D
3C7D3D
2FFFFC
0BEBE4
ENDCHAR
STARTCHAR x
ENCODING 120
SWIDTH 528 0
DWIDTH 8 0
BBX 9 9 0 0
BITMAP
540500
7D2E00
2F7C00
0FF400
07E000
0BF000
1FB800
3E3D00
BC1F40
ENDCHAR
STARTCHAR y
ENCODING 121
SWIDTH 562 0
DWIDTH 9 0
BBX 9 13 0 -4
BITMAP
140500
780F40
780F40
780F40
780F40
7C0F40
3D2F40
2FFF40
0BFF00
006F00
03FD00
07F400
010000
ENDCHAR
STARTCHAR z
ENCODING 122
SWIDTH 481 0
DWIDTH 8 0
BBX 8 9 0 0
BITMAP
5554
BFFC
6AF4
02E0
03D0
0B80
1F40
2FFD
7FFD
ENDCHAR
STARTCHAR braceleft
ENCODING 123
SWIDTH 466 0
DWIDTH 7 0
BBX 7 15 0 -2
BITMAP
01A8
07FC
0B94
0B80
0B80
0B80
BF40
BE00
5F40
0B80
0B80
0B80
0BE8
07FC
01A8
ENDCHAR
STARTCHAR bar
ENCODING 124
SWIDTH 267 0
DWIDTH 4 0
BBX 3 15 1 -2
BITMAP
A4
F4
F4
F4
F4
F4
F4
F4
F4
F4
F4
F4
F4
F4
A0
ENDCHAR
STARTCHAR braceright
ENCODING 125
SWIDTH 466 0
DWIDTH 7 0
BBX 8 15 0 -2
BITMAP
6A00
7F80
5BC0
07C0
07C0
03D0
02F8
01FD
03E4
03C0
07C0
07C0
6BC0
7F80
6900
ENDCHAR
STARTCHAR asciitilde
ENCODING 126
SWIDTH 451 0
DWIDTH 7 0
BBX 7 4 0 4
BITMAP
0410
3FB4
7AF4
2450
ENDCHAR
STARTCHAR nonbreakingspace
ENCODING 160
SWIDTH 279 0
DWIDTH 4 0
BBX 1 1 0 0
BITMAP
00
ENDCHAR
STARTCHAR exclamdown
ENCODING 161
SWIDTH 274 0
DWIDTH 4 0
BBX 3 13 1 -3
BITMAP
50
F4
F4
50
B0
B4
B4
F4
F4
F4
F4
F8
50
ENDCHAR
STARTCHAR cent
ENCODING 162
SWIDTH 462 0
DWIDTH 7 0
BBX 7 11 0 0
BITMAP
0280
0280
1FF4
3E78
7810
7400
3820
2FF8
07D0
0280
0280
ENDCHAR
STARTCHAR sterling
ENCODING 163
SWIDTH 681 0
DWIDTH 11 0
BBX 11 12 0 0
BITMAP
001000
02F400
07F400
0F8000
0F4000
1F9000
7FF000
6FA000
0F4050
0F55F4
0FFFE0
0FFF80
ENDCHAR
STARTCHAR currency
ENCODING 164
SWIDTH 454 0
DWIDTH 7 0
BBX 7 7 0 2
BITMAP
1010
7FF8
29B0
3430
2870
7FF4
2110
ENDCHAR
STARTCHAR yen
ENCODING 165
SWIDTH 653 0
DWIDTH 10 0
BBX 10 12 0 0
BITMAP
140040
7C02E0
7C02E0
7C02E0
7C02E0
3E03D0
2FAFC0
0BFF40
3FFFD0
2FFFD0
00F400
00F400
ENDCHAR
STARTCHAR brokenbar
ENCODING 166
SWIDTH 269 0
DWIDTH 4 0
BBX 3 15 1 -2
BITMAP
A4
F4
F4
F4
F4
F4
A0
00
A4
F4
F4
F4
F4
F4
A4
ENDCHAR
STARTCHAR section
ENCODING 167
SWIDTH 569 0
DWIDTH 9 0
BBX 8 12 1 0
BITMAP
0550
7FF8
FFF8
F540
FFF4
FFFD
F43D
FFFC
6FFD
017D
FFFC
FFF4
ENDCHAR
STARTCHAR dieresis
ENCODING 168
SWIDTH 300 0
DWIDTH 5 0
BBX 5 3 0 8
BITMAP
5140
F380
5140
ENDCHAR
STARTCHAR copyright
ENCODING 169
SWIDTH 655 0
DWIDTH 11 0
BBX 10 9 0 1
BITMAP
06FE00
1E5780
26ECD0
770060
760060
3700A0
2AF8D0
0E5740
02F900
ENDCHAR
STARTCHAR ordfeminine
ENCODING 170
SWIDTH 451 0
DWIDTH 7 0
BBX 5 9 1 3
BITMAP
0400
7FC0
D2C0
D1C0
A7C0
2E40
0000
FFC0
5540
ENDCHAR
STARTCHAR guillemotleft
ENCODING 171
SWIDTH 704 0
DWIDTH 11 0
BBX 11 8 0 0
BITMAP
01D060
07D1F4
1F87D0
7E1F40
7E1F80
0F87E0
03E1F4
008060
ENDCHAR
STARTCHAR logicalnot
ENCODING 172
SWIDTH 529 0
DWIDTH 8 0
BBX 7 4 1 3
BITMAP
AAA4
FFF8
55B4
00B4
ENDCHAR
STARTCHAR uni00AD
ENCODING 173
SWIDTH 418 0
DWIDTH 7 0
BBX 5 3 1 4
BITMAP
AA80
FF80
5540
ENDCHAR
STARTCHAR registered
ENCODING 174
SWIDTH 439 0
DWIDTH 7 0
BBX 7 7 0 5
BITMAP
0100
1A90
2AA0
5894
6AA4
29A0
0540
ENDCHAR
STARTCHAR macron
ENCODING 175
SWIDTH 247 0
DWIDTH 4 0
BBX 4 3 0 8
BITMAP
55
FF
55
ENDCHAR
STARTCHAR degree
ENCODING 176
SWIDTH 381 0
DWIDTH 6 0
BBX 6 5 0 6
BITMAP
1F40
3FD0
75D0
7ED0
1F40
ENDCHAR
STARTCHAR plusminus
ENCODING 177
SWIDTH 516 0
DWIDTH 8 0
BBX 7 9 1 0
BITMAP
0A00
0F40
AFA4
FFF4
5F90
0F40
0500
FFF4
FFF4
ENDCHAR
STARTCHAR twosuperior
ENCODING 178
SWIDTH 355 0
DWIDTH 6 0
BBX 4 7 1 5
BITMAP
50
FD
6F
BE
E5
FE
55
ENDCHAR
STARTCHAR threesuperior
ENCODING 179
SWIDTH 354 0
DWIDTH 6 0
BBX 4 7 1 5
BITMAP
50
FE
6F
7E
6F
FE
54
ENDCHAR
STARTCHAR acute
ENCODING 180
SWIDTH 225 0
DWIDTH 4 0
BBX 4 3 0 8
BITMAP
18
7D
A0
ENDCHAR
STARTCHAR mu
ENCODING 181
SWIDTH 571 0
DWIDTH 9 0
BBX 8 13 1 -4
BITMAP
5015
F02D
F02D
F02D
F02D
F02D
F87D
FFFD
FFE5
E000
E000
E000
9000
ENDCHAR
STARTCHAR paragraph
ENCODING 182
SWIDTH 808 0
DWIDTH 13 0
BBX 12 12 0 0
BITMAP
001554
07FFFE
1FFFFE
3E6E1E
7C2E1E
7C2E1E
7D2E1E
2FAE1E
0BFE1E
01BE1E
002E1E
002E1E
ENDCHAR
STARTCHAR periodcentered
ENCODING 183
SWIDTH 261 0
DWIDTH 4 0
BBX 4 3 0 4
BITMAP
28
7D
28
ENDCHAR
STARTCHAR cedilla
ENCODING 184
SWIDTH 208 0
DWIDTH 3 0
BBX 4 5 0 -4
BITMAP
14
24
2D
BD
64
ENDCHAR
STARTCHAR onesuperior
ENCODING 185
SWIDTH 231 0
DWIDTH 4 0
BBX 3 7 0 5
BITMAP
10
78
38
28
28
28
14
ENDCHAR
STARTCHAR ordmasculine
ENCODING 186
SWIDTH 432 0
DWIDTH 7 0
BBX 5 9 1 3
BITMAP
1400
7F40
D2C0
D1C0
A780
2E00
0000
FFC0
5540
ENDCHAR
STARTCHAR guillemotright
ENCODING 187
SWIDTH 703 0
DWIDTH 11 0
BBX 10 8 1 0
BITMAP
A02400
F87D00
3E1F40
0F87D0
1F87D0
7D2F40
F47D00
502400
ENDCHAR
STARTCHAR onequarter
ENCODING 188
SWIDTH 648 0
DWIDTH 10 0
BBX 9 12 1 0
BITMAP
500400
F42C00
B47800
74B000
75D000
77C000
176400
0E7740
2D7740
38BB80
B0BF80
E00740
ENDCHAR
STARTCHAR onehalf
ENCODING 189
SWIDTH 637 0
DWIDTH 10 0
BBX 9 12 1 0
BITMAP
500400
F42C00
B47800
74B000
75D000
77C000
176900
0E7F40
2D1B80
387E00
B07A40
E07F40
ENDCHAR
STARTCHAR threequarters
ENCODING 190
SWIDTH 708 0
DWIDTH 11 0
BBX 11 12 0 0
BITMAP
140040
7F42C0
1B8740
2F8B00
1B9D00
7F7800
157640
00E7B4
02D774
038BB8
0B0BF8
1E0074
ENDCHAR
STARTCHAR questiondown
ENCODING 191
SWIDTH 602 0
DWIDTH 10 0
BBX 9 13 0 -3
BITMAP
001400
007D00
003C00
001400
003C00
01BC00
1FF400
3F9000
7C0000
7C0000
3FFFC0
1FFFC0
015540
ENDCHAR
STARTCHAR Agrave
ENCODING 192
SWIDTH 673 0
DWIDTH 11 0
BBX 9 15 1 0
BITMAP
0A0000
1F8000
028000
004000
1BF800
3FFE00
BD1F40
F40B80
F007C0
F007C0
F95BC0
FFFFC0
FAAFC0
F007C0
F007C0
ENDCHAR
STARTCHAR Aacute
ENCODING 193
SWIDTH 673 0
DWIDTH 11 0
BBX 9 15 1 0
BITMAP
002400
00F800
00D000
004000
1BF800
3FFE00
BD1F40
F40B80
F007C0
F007C0
F95BC0
FFFFC0
FAAFC0
F007C0
F007C0
ENDCHAR
STARTCHAR Acircumflex
ENCODING 194
SWIDTH 673 0
DWIDTH 11 0
BBX 9 15 1 0
BITMAP
01C000
07F400
062000
004000
1BF800
3FFE00
BD1F40
F40B80
F007C0
F007C0
F95BC0
FFFFC0
FAAFC0
F007C0
F007C0
ENDCHAR
STARTCHAR Atilde
ENCODING 195
SWIDTH 673 0
DWIDTH 11 0
BBX 9 14 1 0
BITMAP
0BAC00
0EFC00
096400
1BF800
3FFE00
BD1F40
F40B80
F007C0
F007C0
F95BC0
FFFFC0
FAAFC0
F007C0
F007C0
ENDCHAR
STARTCHAR Adieresis
ENCODING 196
SWIDTH 673 0
DWIDTH 11 0
BBX 9 14 1 0
BITMAP
051000
0F3800
055400
1BF800
3FFE00
BD1F40
F40B80
F007C0
F007C0
F95BC0
FFFFC0
FAAFC0
F007C0
F007C0
ENDCHAR
STARTCHAR Aring
ENCODING 197
SWIDTH 673 0
DWIDTH 11 0
BBX 9 14 1 0
BITMAP
019000
037000
03E000
0BF800
3FFE00
BD1F40
F40B80
F007C0
F007C0
F95BC0
FFFFC0
FAAFC0
F007C0
F007C0
ENDCHAR
STARTCHAR AE
ENCODING 198
SWIDTH 988 0
DWIDTH 16 0
BBX 15 12 1 0
BITMAP
00555550
1BFFFFF4
3FFFFFF4
BD07C000
F407C000
F007EA40
F007FF80
F95BEA40
FFFFC000
FAAFD550
F007FFF4
F007FFF4
ENDCHAR
STARTCHAR Ccedilla
ENCODING 199
SWIDTH 640 0
DWIDTH 10 0
BBX 10 16 0 -4
BITMAP
001500
02FFD0
0FFFE0
2F4080
7D0000
780000
B80000
7C0000
3D0000
2F81D0
0BFFE0
02FF90
007400
007800
01F800
006000
ENDCHAR
STARTCHAR Egrave
ENCODING 200
SWIDTH 578 0
DWIDTH 9 0
BBX 8 15 1 0
BITMAP
0D00
1F40
0680
5554
FFFE
FFFE
F400
F400
FAA0
FFF0
FA90
F400
F555
FFFE
FFFE
ENDCHAR
STARTCHAR Eacute
ENCODING 201
SWIDTH 578 0
DWIDTH 9 0
BBX 8 15 1 0
BITMAP
0070
01F4
0290
5554
FFFE
FFFE
F400
F400
FAA0
FFF0
FA90
F400
F555
FFFE
FFFE
ENDCHAR
STARTCHAR Ecircumflex
ENCODING 202
SWIDTH 578 0
DWIDTH 9 0
BBX 8 15 1 0
BITMAP
0280
0BE0
0950
5554
FFFE
FFFE
F400
F400
FAA0
FFF0
FA90
F400
F555
FFFE
FFFE
ENDCHAR
STARTCHAR Edieresis
ENCODING 203
SWIDTH 578 0
DWIDTH 9 0
BBX 8 14 1 0
BITMAP
0410
1DB4
5964
FFFE
FFFE
F400
F400
FAA0
FFF0
FA90
F400
F555
FFFE
FFFE
ENDCHAR
STARTCHAR Igrave
ENCODING 204
SWIDTH 270 0
DWIDTH 4 0
BBX 5 15 -1 0
BITMAP
2400
7E00
0A00
0500
0F40
0F40
0F40
0F40
0F40
0F40
0F40
0F40
0F40
0F40
0F40
ENDCHAR
STARTCHAR Iacute
ENCODING 205
SWIDTH 270 0
DWIDTH 4 0
BBX 4 15 1 0
BITMAP
1D
7E
74
50
F4
F4
F4
F4
F4
F4
F4
F4
F4
F4
F4
ENDCHAR
STARTCHAR Icircumflex
ENCODING 206
SWIDTH 270 0
DWIDTH 4 0
BBX 4 15 0 0
BITMAP
28
BE
56
14
3D
3D
3D
3D
3D
3D
3D
3D
3D
3D
3D
ENDCHAR
STARTCHAR Idieresis
ENCODING 207
SWIDTH 270 0
DWIDTH 4 0
BBX 6 14 -1 0
BITMAP
1040
79E0
1580
0F40
0F40
0F40
0F40
0F40
0F40
0F40
0F40
0F40
0F40
0F40
ENDCHAR
STARTCHAR Eth
ENCODING 208
SWIDTH 672 0
DWIDTH 11 0
BBX 11 12 0 0
BITMAP
054000
2FFD00
2FFF80
2E0BD0
2E02F0
BF80F4
FFC0F4
6E40F4
2E02F0
2E5BD0
2FFF40
2FF900
ENDCHAR
STARTCHAR Ntilde
ENCODING 209
SWIDTH 689 0
DWIDTH 11 0
BBX 9 15 1 0
BITMAP
0B9C00
0FFC00
092400
500140
F807C0
FD07C0
FF07C0
FF87C0
F7D7C0
F6E7C0
F4FBC0
F47FC0
F43FC0
F41FC0
F40BC0
ENDCHAR
STARTCHAR Ograve
ENCODING 210
SWIDTH 777 0
DWIDTH 12 0
BBX 12 16 0 -1
BITMAP
009000
01F800
002800
001400
02FF90
0FFFF4
2F40BD
7D003E
78001F
B8001F
7C001F
3D003E
2F81FC
0BFFF4
02FF90
000400
ENDCHAR
STARTCHAR Oacute
ENCODING 211
SWIDTH 777 0
DWIDTH 12 0
BBX 12 16 0 -1
BITMAP
000340
000F80
001D00
001400
02FF90
0FFFF4
2F40BD
7D003E
78001F
B8001F
7C001F
3D003E
2F81FC
0BFFF4
02FF90
000400
ENDCHAR
STARTCHAR Ocircumflex
ENCODING 212
SWIDTH 777 0
DWIDTH 12 0
BBX 12 16 0 -1
BITMAP
001800
00BF00
006200
001400
02FF90
0FFFF4
2F40BD
7D003E
78001F
B8001F
7C001F
3D003E
2F81FC
0BFFF4
02FF90
000400
ENDCHAR
STARTCHAR Otilde
ENCODING 213
SWIDTH 777 0
DWIDTH 12 0
BBX 12 16 0 -1
BITMAP
00F680
01EF80
009600
001400
02FF90
0FFFF4
2F40BD
7D003E
78001F
B8001F
7C001F
3D003E
2F81FC
0BFFF4
02FF90
000400
ENDCHAR
STARTCHAR Odieresis
ENCODING 214
SWIDTH 777 0
DWIDTH 12 0
BBX 12 15 0 -1
BITMAP
005100
00E780
005600
02FF90
0FFFF4
2F40BD
7D003E
78001F
B8001F
7C001F
3D003E
2F81FC
0BFFF4
02FF90
000400
ENDCHAR
STARTCHAR multiply
ENCODING 215
SWIDTH 479 0
DWIDTH 8 0
BBX 6 6 1 3
BITMAP
1080
FAE0
BFD0
3F80
BFD0
B6D0
ENDCHAR
STARTCHAR Oslash
ENCODING 216
SWIDTH 777 0
DWIDTH 12 0
BBX 12 13 0 -1
BITMAP
001414
02FFF8
0FFFF8
2F42FD
7D07AE
781F1F
B83D1F
7CB41F
3EE03E
2FD1FC
0FFFF4
2EFF90
000400
ENDCHAR
STARTCHAR Ugrave
ENCODING 217
SWIDTH 673 0
DWIDTH 11 0
BBX 9 15 1 0
BITMAP
0A0000
0F8000
02C000
500140
F007C0
F007C0
F007C0
F007C0
F007C0
F007C0
F407C0
F40B80
BD6F40
2FFE00
0BF400
ENDCHAR
STARTCHAR Uacute
ENCODING 218
SWIDTH 673 0
DWIDTH 11 0
BBX 9 15 1 0
BITMAP
002400
00BC00
00E000
500140
F007C0
F007C0
F007C0
F007C0
F007C0
F007C0
F407C0
F40B80
BD6F40
2FFE00
0BF400
ENDCHAR
STARTCHAR Ucircumflex
ENCODING 219
SWIDTH 673 0
DWIDTH 11 0
BBX 9 15 1 0
BITMAP
01C000
07F400
062000
500140
F007C0
F007C0
F007C0
F007C0
F007C0
F007C0
F407C0
F40B80
BD6F40
2FFE00
0BF400
ENDCHAR
STARTCHAR Udieresis
ENCODING 220
SWIDTH 673 0
DWIDTH 11 0
BBX 9 14 1 0
BITMAP
051000
0F3800
551540
F007C0
F007C0
F007C0
F007C0
F007C0
F007C0
F407C0
F40B80
BD6F40
2FFE00
0BF400
ENDCHAR
STARTCHAR Yacute
ENCODING 221
SWIDTH 620 0
DWIDTH 10 0
BBX 10 15 0 0
BITMAP
001C00
007D00
006400
100040
B802D0
B802D0
B802D0
7803D0
7D07D0
2FAF80
0BFE00
01F400
00F000
00F000
00F000
ENDCHAR
STARTCHAR Thorn
ENCODING 222
SWIDTH 637 0
DWIDTH 10 0
BBX 9 13 1 -1
BITMAP
A40000
F40000
FFF800
FFFF00
F45F80
F407C0
F407C0
F40BC0
F96F40
FFFE00
FFE400
F40000
500000
ENDCHAR
STARTCHAR germandbls
ENCODING 223
SWIDTH 813 0
DWIDTH 13 0
BBX 13 13 0 0
BITMAP
00594000
07FFD000
0FAAF000
2E00F400
6E05F400
BE2FE000
7E7E4000
2E780000
2E3FFE00
2E1BFF80
2E0007C0
2E2FFF80
2E2FFE00
ENDCHAR
STARTCHAR agrave
ENCODING 224
SWIDTH 607 0
DWIDTH 10 0
BBX 9 12 0 0
BITMAP
060000
0BC000
01C000
02A040
1FFEC0
3EAFC0
7C0BC0
B807C0
B807C0
7D1FC0
2FFFC0
0BF880
ENDCHAR
STARTCHAR aacute
ENCODING 225
SWIDTH 607 0
DWIDTH 10 0
BBX 9 12 0 0
BITMAP
002800
00BC00
00A000
02A040
1FFEC0
3EAFC0
7C0BC0
B807C0
B807C0
7D1FC0
2FFFC0
0BF880
ENDCHAR
STARTCHAR acircumflex
ENCODING 226
SWIDTH 607 0
DWIDTH 10 0
BBX 9 12 0 0
BITMAP
01D000
07F400
022400
02A040
1FFEC0
3EAFC0
7C0BC0
B807C0
B807C0
7D1FC0
2FFFC0
0BF880
ENDCHAR
STARTCHAR atilde
ENCODING 227
SWIDTH 607 0
DWIDTH 10 0
BBX 9 12 0 0
BITMAP
0B9C00
0FFC00
092400
02A040
1FFEC0
3EAFC0
7C0BC0
B807C0
B807C0
7D1FC0
2FFFC0
0BF880
ENDCHAR
STARTCHAR adieresis
ENCODING 228
SWIDTH 607 0
DWIDTH 10 0
BBX 9 12 0 0
BITMAP
011400
0B6C00
051400
02A040
1FFEC0
3EAFC0
7C0BC0
B807C0
B807C0
7D1FC0
2FFFC0
0BF880
ENDCHAR
STARTCHAR aring
ENCODING 229
SWIDTH 607 0
DWIDTH 10 0
BBX 9 13 0 0
BITMAP
004000
02F000
037000
019000
02A040
1FFEC0
3EAFC0
7C0BC0
B807C0
B807C0
7D1FC0
2FFFC0
0BF880
ENDCHAR
STARTCHAR ae
ENCODING 230
SWIDTH 976 0
DWIDTH 16 0
BBX 15 9 0 0
BITMAP
02A04690
1FFEFFF8
3EAFFEFC
7C0BF1F4
B807E3D0
B807FB80
7D1FFE28
2FFFFFFC
0BF89FE4
ENDCHAR
STARTCHAR ccedilla
ENCODING 231
SWIDTH 521 0
DWIDTH 8 0
BBX 8 13 0 -4
BITMAP
01A4
1FFD
3FAE
7C08
B800
B800
7D1D
2FFF
0BF8
01C0
01E0
07E0
0180
ENDCHAR
STARTCHAR egrave
ENCODING 232
SWIDTH 524 0
DWIDTH 8 0
BBX 8 12 0 0
BITMAP
0A00
0F80
02C0
02A4
1FFE
3EBE
7C7C
B9F4
BBD0
7F9D
2FFF
0BF8
ENDCHAR
STARTCHAR eacute
ENCODING 233
SWIDTH 524 0
DWIDTH 8 0
BBX 8 12 0 0
BITMAP
0028
00BC
00E0
02A4
1FFE
3EBE
7C7C
B9F4
BBD0
7F9D
2FFF
0BF8
ENDCHAR
STARTCHAR ecircumflex
ENCODING 234
SWIDTH 524 0
DWIDTH 8 0
BBX 8 12 0 0
BITMAP
0180
0BF0
0620
02A4
1FFE
3EBE
7C7C
B9F4
BBD0
7F9D
2FFF
0BF8
ENDCHAR
STARTCHAR edieresis
ENCODING 235
SWIDTH 524 0
DWIDTH 8 0
BBX 8 12 0 0
BITMAP
0510
0E78
0510
02A4
1FFE
3EBE
7C7C
B9F4
BBD0
7F9D
2FFF
0BF8
ENDCHAR
STARTCHAR igrave
ENCODING 236
SWIDTH 235 0
DWIDTH 4 0
BBX 4 12 -1 0
BITMAP
34
BD
1D
05
1F
1F
1F
1F
1F
1F
1F
1F
ENDCHAR
STARTCHAR iacute
ENCODING 237
SWIDTH 235 0
DWIDTH 4 0
BBX 5 12 0 0
BITMAP
0600
1F40
2800
1400
7C00
7C00
7C00
7C00
7C00
7C00
7C00
7C00
ENDCHAR
STARTCHAR icircumflex
ENCODING 238
SWIDTH 235 0
DWIDTH 4 0
BBX 4 12 0 0
BITMAP
28
BE
96
14
7C
7C
7C
7C
7C
7C
7C
7C
ENDCHAR
STARTCHAR idieresis
ENCODING 239
SWIDTH 235 0
DWIDTH 4 0
BBX 6 11 -1 0
BITMAP
1040
76D0
2640
1F00
1F00
1F00
1F00
1F00
1F00
1F00
1F00
ENDCHAR
STARTCHAR eth
ENCODING 240
SWIDTH 581 0
DWIDTH 9 0
BBX 9 13 0 0
BITMAP
005000
06F500
0FFF80
0ABE40
01BE00
1FFF40
3EAF80
7C0B80
B807C0
B80780
7D1F80
2FFF00
07F800
ENDCHAR
STARTCHAR ntilde
ENCODING 241
SWIDTH 562 0
DWIDTH 9 0
BBX 9 12 0 0
BITMAP
0B9C00
0FFC00
092400
115000
7BFC00
7FBE00
7D0F40
7C0F40
7C0F40
7C0F40
7C0F40
7C0F40
ENDCHAR
STARTCHAR ograve
ENCODING 242
SWIDTH 579 0
DWIDTH 9 0
BBX 9 12 0 0
BITMAP
060000
0BC000
01C000
02A400
1FFE00
3EAF40
7C0B80
B807C0
B80780
7D1F80
2FFF00
07F800
ENDCHAR
STARTCHAR oacute
ENCODING 243
SWIDTH 579 0
DWIDTH 9 0
BBX 9 12 0 0
BITMAP
002800
00BC00
00A000
02A400
1FFE00
3EAF40
7C0B80
B807C0
B80780
7D1F80
2FFF00
07F800
ENDCHAR
STARTCHAR ocircumflex
ENCODING 244
SWIDTH 579 0
DWIDTH 9 0
BBX 9 12 0 0
BITMAP
01D000
07F400
022400
02A400
1FFE00
3EAF40
7C0B80
B807C0
B80780
7D1F80
2FFF00
07F800
ENDCHAR
STARTCHAR otilde
ENCODING 245
SWIDTH 579 0
DWIDTH 9 0
BBX 9 12 0 0
BITMAP
0B9C00
0FFC00
092400
02A400
1FFE00
3EAF40
7C0B80
B807C0
B80780
7D1F80
2FFF00
07F800
ENDCHAR
STARTCHAR odieresis
ENCODING 246
SWIDTH 579 0
DWIDTH 9 0
BBX 9 12 0 0
BITMAP
011400
0B3C00
051400
02A400
1FFE00
3EAF40
7C0B80
B807C0
B80780
7D1F80
2FFF00
07F800
ENDCHAR
STARTCHAR divide
ENCODING 247
SWIDTH 494 0
DWIDTH 8 0
BBX 8 8 0 2
BITMAP
0140
03C0
0240
6AA9
7FFD
1554
03C0
03C0
ENDCHAR
STARTCHAR oslash
ENCODING 248
SWIDTH 579 0
DWIDTH 9 0
BBX 9 9 0 0
BITMAP
02A540
1FFF40
3EBF40
7C7F80
B9F7C0
BBD780
7F5F80
2FFF00
7FF800
ENDCHAR
STARTCHAR ugrave
ENCODING 249
SWIDTH 562 0
DWIDTH 9 0
BBX 9 12 0 0
BITMAP
0A0000
0F8000
02C000
140500
780F40
780F40
780F40
780F40
7C0F40
3D2F40
2FFF40
0BF640
ENDCHAR
STARTCHAR uacute
ENCODING 250
SWIDTH 562 0
DWIDTH 9 0
BBX 9 12 0 0
BITMAP
002400
00BC00
00E000
140500
780F40
780F40
780F40
780F40
7C0F40
3D2F40
2FFF40
0BF640
ENDCHAR
STARTCHAR ucircumflex
ENCODING 251
SWIDTH 562 0
DWIDTH 9 0
BBX 9 12 0 0
BITMAP
01D000
07F400
062000
140500
780F40
780F40
780F40
780F40
7C0F40
3D2F40
2FFF40
0BF640
ENDCHAR
STARTCHAR udieresis
ENCODING 252
SWIDTH 562 0
DWIDTH 9 0
BBX 9 12 0 0
BITMAP
051400
0F3800
051400
140500
780F40
780F40
780F40
780F40
7C0F40
3D2F40
2FFF40
0BF640
ENDCHAR
STARTCHAR yacute
ENCODING 253
SWIDTH 562 0
DWIDTH 9 0
BBX 9 16 0 -4
BITMAP
002400
00B800
00D000
140500
780F40
780F40
780F40
780F40
7C0F40
3D2F40
2FFF40
0BFF00
006F00
03FD00
07F400
010000
ENDCHAR
STARTCHAR thorn
ENCODING 254
SWIDTH 608 0
DWIDTH 10 0
BBX 10 16 0 -4
BITMAP
3C0000
7C0000
7C0000
7DA400
7FFF00
7FAF80
7D03D0
7C02D0
7C03D0
7E0BC0
7FFF80
7EFD00
7C0000
7C0000
7C0000
140000
ENDCHAR
STARTCHAR ydieresis
ENCODING 255
SWIDTH 562 0
DWIDTH 9 0
BBX 9 16 0 -4
BITMAP
051400
0F3800
051400
140500
780F40
780F40
780F40
780F40
7C0F40
3D2F40
2FFF40
0BFF00
006F00
03FD00
07F400
010000
ENDCHAR
STARTCHAR Amacron
ENCODING 256
SWIDTH 673 0
DWIDTH 11 0
BBX 9 14 1 0
BITMAP
015000
0BF400
069000
1BF800
3FFE00
BD1F40
F40B80
F007C0
F007C0
F95BC0
FFFFC0
FAAFC0
F007C0
F007C0
ENDCHAR
STARTCHAR amacron
ENCODING 257
SWIDTH 607 0
DWIDTH 10 0
BBX 9 12 0 0
BITMAP
015000
07F800
055400
02A040
1FFEC0
3EAFC0
7C0BC0
B807C0
B807C0
7D1FC0
2FFFC0
0BF880
ENDCHAR
STARTCHAR Abreve
ENCODING 258
SWIDTH 673 0
DWIDTH 11 0
BBX 9 14 1 0
BITMAP
077000
07F000
018000
1BF800
3FFE00
BD1F40
F40B80
F007C0
F007C0
F95BC0
FFFFC0
FAAFC0
F007C0
F007C0
ENDCHAR
STARTCHAR abreve
ENCODING 259
SWIDTH 607 0
DWIDTH 10 0
BBX 9 12 0 0
BITMAP
077000
03F000
004000
02A040
1FFEC0
3EAFC0
7C0BC0
B807C0
B807C0
7D1FC0
2FFFC0
0BF880
ENDCHAR
STARTCHAR Aogonek
ENCODING 260
SWIDTH 673 0
DWIDTH 11 0
BBX 9 15 1 -3
BITMAP
004000
1BF800
3FFE00
BD1F40
F40B80
F007C0
F007C0
F95BC0
FFFFC0
FAAFC0
F007C0
F007C0
000600
000B80
000680
ENDCHAR
STARTCHAR aogonek
ENCODING 261
SWIDTH 607 0
DWIDTH 10 0
BBX 10 12 0 -3
BITMAP
02A040
1FFEC0
3EAFC0
7C0BC0
B807C0
B807C0
7D1FC0
2FFFC0
0BF9C0
000280
0003A0
0002A0
ENDCHAR
STARTCHAR Cacute
ENCODING 262
SWIDTH 640 0
DWIDTH 10 0
BBX 10 16 0 -1
BITMAP
000700
001F40
002900
001500
02FFD0
0FFFE0
2F4080
7D0000
780000
B80000
7C0000
3D0000
2F81D0
0BFFE0
02FF90
000400
ENDCHAR
STARTCHAR cacute
ENCODING 263
SWIDTH 521 0
DWIDTH 8 0
BBX 8 12 0 0
BITMAP
0024
00B8
00D0
01A4
1FFD
3FAE
7C08
B800
B800
7D1D
2FFF
0BF8
ENDCHAR
STARTCHAR Ccircumflex
ENCODING 264
SWIDTH 640 0
DWIDTH 10 0
BBX 10 16 0 -1
BITMAP
002800
00BE00
009600
001500
02FFD0
0FFFE0
2F4080
7D0000
780000
B80000
7C0000
3D0000
2F81D0
0BFFE0
02FF90
000400
ENDCHAR
STARTCHAR ccircumflex
ENCODING 265
SWIDTH 521 0
DWIDTH 8 0
BBX 8 12 0 0
BITMAP
01D0
07F4
0224
01A4
1FFD
3FAE
7C08
B800
B800
7D1D
2FFF
0BF8
ENDCHAR
STARTCHAR Cdotaccent
ENCODING 266
SWIDTH 640 0
DWIDTH 10 0
BBX 10 15 0 -1
BITMAP
001400
002C00
001900
02FFD0
0FFFE0
2F4080
7D0000
780000
B80000
7C0000
3D0000
2F81D0
0BFFE0
02FF90
000400
ENDCHAR
STARTCHAR cdotaccent
ENCODING 267
SWIDTH 521 0
DWIDTH 8 0
BBX 8 12 0 0
BITMAP
0090
01E0
0040
01A4
1FFD
3FAE
7C08
B800
B800
7D1D
2FFF
0BF8
ENDCHAR
STARTCHAR Ccaron
ENCODING 268
SWIDTH 640 0
DWIDTH 10 0
BBX 10 16 0 -1
BITMAP
00AB00
007E00
001400
001500
02FFD0
0FFFE0
2F4080
7D0000
780000
B80000
7C0000
3D0000
2F81D0
0BFFE0
02FF90
000400
ENDCHAR
STARTCHAR ccaron
ENCODING 269
SWIDTH 521 0
DWIDTH 8 0
BBX 8 12 0 0
BITMAP
0774
02F0
0080
01A4
1FFD
3FAE
7C08
B800
B800
7D1D
2FFF
0BF8
ENDCHAR
STARTCHAR Dcaron
ENCODING 270
SWIDTH 653 0
DWIDTH 10 0
BBX 9 15 1 0
BITMAP
0A7000
07E000
008000
550000
FFE400
FFFD00
F46F40
F40F80
F407C0
F407C0
F407C0
F40F80
F57F00
FFFD00
FFE000
ENDCHAR
STARTCHAR dcaron
ENCODING 271
SWIDTH 740 0
DWIDTH 12 0
BBX 12 12 0 0
BITMAP
000680
0007CE
0007CE
02A7C9
1FFFC0
3EAFC0
7C0BC0
B807C0
B807C0
7D1FC0
2FFFC0
0BF880
ENDCHAR
STARTCHAR Dcroat
ENCODING 272
SWIDTH 672 0
DWIDTH 11 0
BBX 11 12 0 0
BITMAP
054000
2FFD00
2FFF80
2E0BD0
2E02F0
BF80F4
FFC0F4
6E40F4
2E02F0
2E5BD0
2FFF40
2FF900
ENDCHAR
STARTCHAR dcroat
ENCODING 273
SWIDTH 606 0
DWIDTH 10 0
BBX 10 12 0 0
BITMAP
000690
000FE0
000FE0
02A7C0
1FFFC0
3EAFC0
7C0BC0
B807C0
B807C0
7D1FC0
2FFFC0
0BF880
ENDCHAR
STARTCHAR Emacron
ENCODING 274
SWIDTH 578 0
DWIDTH 9 0
BBX 8 14 1 0
BITMAP
0550
0FF0
5AA4
FFFE
FFFE
F400
F400
FAA0
FFF0
FA90
F400
F555
FFFE
FFFE
ENDCHAR
STARTCHAR emacron
ENCODING 275
SWIDTH 524 0
DWIDTH 8 0
BBX 8 12 0 0
BITMAP
0150
07F8
0554
02A4
1FFE
3EBE
7C7C
B9F4
BBD0
7F9D
2FFF
0BF8
ENDCHAR
STARTCHAR Ebreve
ENCODING 276
SWIDTH 578 0
DWIDTH 9 0
BBX 8 14 1 0
BITMAP
0990
0BD0
5654
FFFE
FFFE
F400
F400
FAA0
FFF0
FA90
F400
F555
FFFE
FFFE
ENDCHAR
STARTCHAR ebreve
ENCODING 277
SWIDTH 524 0
DWIDTH 8 0
BBX 8 12 0 0
BITMAP
0770
03F0
0040
02A4
1FFE
3EBE
7C7C
B9F4
BBD0
7F9D
2FFF
0BF8
ENDCHAR
STARTCHAR Edotaccent
ENCODING 278
SWIDTH 578 0
DWIDTH 9 0
BBX 8 14 1 0
BITMAP
0140
03C0
5554
FFFE
FFFE
F400
F400
FAA0
FFF0
FA90
F400
F555
FFFE
FFFE
ENDCHAR
STARTCHAR edotaccent
ENCODING 279
SWIDTH 524 0
DWIDTH 8 0
BBX 8 12 0 0
BITMAP
0080
01D0
0040
02A4
1FFE
3EBE
7C7C
B9F4
BBD0
7F9D
2FFF
0BF8
ENDCHAR
STARTCHAR Eogonek
ENCODING 280
SWIDTH 578 0
DWIDTH 9 0
BBX 8 15 1 -3
BITMAP
5554
FFFE
FFFE
F400
F400
FAA0
FFF0
FA90
F400
F555
FFFE
FFFE
0070
00B9
0069
ENDCHAR
STARTCHAR eogonek
ENCODING 281
SWIDTH 524 0
DWIDTH 8 0
BBX 8 12 0 -3
BITMAP
02A4
1FFE
3EBE
7C7C
B9F4
BBD0
7F9D
2FFF
0BF8
0070
00B9
0069
ENDCHAR
STARTCHAR Ecaron
ENCODING 282
SWIDTH 578 0
DWIDTH 9 0
BBX 8 15 1 0
BITMAP
0EA0
07D0
0140
5554
FFFE
FFFE
F400
F400
FAA0
FFF0
FA90
F400
F555
FFFE
FFFE
ENDCHAR
STARTCHAR ecaron
ENCODING 283
SWIDTH 524 0
DWIDTH 8 0
BBX 8 12 0 0
BITMAP
0774
02F0
0080
02A4
1FFE
3EBE
7C7C
B9F4
BBD0
7F9D
2FFF
0BF8
ENDCHAR
STARTCHAR Gcircumflex
ENCODING 284
SWIDTH 665 0
DWIDTH 11 0
BBX 10 16 0 -1
BITMAP
002800
00BE00
009600
001400
02FF90
0FFFE0
2F4180
7D0000
780000
B800A0
7C01F0
3D01F0
2F41F0
0BFFF0
02FF90
000400
ENDCHAR
STARTCHAR gcircumflex
ENCODING 285
SWIDTH 607 0
DWIDTH 10 0
BBX 9 16 0 -4
BITMAP
01D000
07F400
022400
02A040
1FFEC0
3EAFC0
7C0BC0
B807C0
B807C0
7D1FC0
2FFFC0
0BFFC0
001B80
01FF00
01F800
004000
ENDCHAR
STARTCHAR Gbreve
ENCODING 286
SWIDTH 665 0
DWIDTH 11 0
BBX 10 15 0 -1
BITMAP
00AA00
007E00
002900
02FF90
0FFFE0
2F4180
7D0000
780000
B800A0
7C01F0
3D01F0
2F41F0
0BFFF0
02FF90
000400
ENDCHAR
STARTCHAR gbreve
ENCODING 287
SWIDTH 607 0
DWIDTH 10 0
BBX 9 16 0 -4
BITMAP
037400
03F000
005000
02A040
1FFEC0
3EAFC0
7C0BC0
B807C0
B807C0
7D1FC0
2FFFC0
0BFFC0
001B80
01FF00
01F800
004000
ENDCHAR
STARTCHAR Gdotaccent
ENCODING 288
SWIDTH 665 0
DWIDTH 11 0
BBX 10 15 0 -1
BITMAP
001400
003C00
001800
02FF90
0FFFE0
2F4180
7D0000
780000
B800A0
7C01F0
3D01F0
2F41F0
0BFFF0
02FF90
000400
ENDCHAR
STARTCHAR gdotaccent
ENCODING 289
SWIDTH 607 0
DWIDTH 10 0
BBX 9 16 0 -4
BITMAP
008000
01D000
004000
02A040
1FFEC0
3EAFC0
7C0BC0
B807C0
B807C0
7D1FC0
2FFFC0
0BFFC0
001B80
01FF00
01F800
004000
ENDCHAR
STARTCHAR Gcommaaccent
ENCODING 290
SWIDTH 665 0
DWIDTH 11 0
BBX 10 16 0 -4
BITMAP
001400
02FF90
0FFFE0
2F4180
7D0000
780000
B800A0
7C01F0
3D01F0
2F41F0
0BFFF0
02FF90
001400
003C00
002C00
001800
ENDCHAR
STARTCHAR gcommaaccent
ENCODING 291
SWIDTH 607 0
DWIDTH 10 0
BBX 9 17 0 -4
BITMAP
008000
01D000
01E000
004000
02A040
1FFEC0
3EAFC0
7C0BC0
B807C0
B807C0
7D1FC0
2FFFC0
0BFFC0
001B80
01FF00
01F800
004000
ENDCHAR
STARTCHAR Hcircumflex
ENCODING 292
SWIDTH 689 0
DWIDTH 11 0
BBX 9 14 1 0
BITMAP
01D000
07F400
562540
F407C0
F407C0
F407C0
F407C0
FAABC0
FFFFC0
FAABC0
F407C0
F407C0
F407C0
F407C0
ENDCHAR
STARTCHAR hcircumflex
ENCODING 293
SWIDTH 562 0
DWIDTH 9 0
BBX 9 12 0 0
BITMAP
287400
7DFD00
7D8800
7D5000
7FFC00
7FBE00
7D0F40
7C0F40
7C0F40
7C0F40
7C0F40
7C0F40
ENDCHAR
STARTCHAR Hbar
ENCODING 294
SWIDTH 689 0
DWIDTH 11 0
BBX 11 12 0 0
BITMAP
140050
3D01F0
BFABF8
BFFFF8
7D55F4
3EAAF0
3FFFF0
3EAAF0
3D01F0
3D01F0
3D01F0
3D01F0
ENDCHAR
STARTCHAR hbar
ENCODING 295
SWIDTH 562 0
DWIDTH 9 0
BBX 9 12 0 0
BITMAP
680000
FE0000
BE0000
7D5000
7FFC00
7FBE00
7D0F40
7C0F40
7C0F40
7C0F40
7C0F40
7C0F40
ENDCHAR
STARTCHAR Itilde
ENCODING 296
SWIDTH 270 0
DWIDTH 4 0
BBX 6 14 -1 0
BITMAP
3DA0
7BE0
2680
0F40
0F40
0F40
0F40
0F40
0F40
0F40
0F40
0F40
0F40
0F40
ENDCHAR
STARTCHAR itilde
ENCODING 297
SWIDTH 235 0
DWIDTH 4 0
BBX 6 12 -1 0
BITMAP
7DD0
BBD0
6140
0500
1F00
1F00
1F00
1F00
1F00
1F00
1F00
1F00
ENDCHAR
STARTCHAR Imacron
ENCODING 298
SWIDTH 270 0
DWIDTH 4 0
BBX 4 14 0 0
BITMAP
55
BF
69
3D
3D
3D
3D
3D
3D
3D
3D
3D
3D
3D
ENDCHAR
STARTCHAR imacron
ENCODING 299
SWIDTH 235 0
DWIDTH 4 0
BBX 4 11 0 0
BITMAP
55
FF
A9
7C
7C
7C
7C
7C
7C
7C
7C
ENDCHAR
STARTCHAR Ibreve
ENCODING 300
SWIDTH 270 0
DWIDTH 4 0
BBX 4 14 0 0
BITMAP
66
7E
18
3D
3D
3D
3D
3D
3D
3D
3D
3D
3D
3D
ENDCHAR
STARTCHAR ibreve
ENCODING 301
SWIDTH 235 0
DWIDTH 4 0
BBX 4 11 0 0
BITMAP
AA
BD
28
7C
7C
7C
7C
7C
7C
7C
7C
ENDCHAR
STARTCHAR Iogonek
ENCODING 302
SWIDTH 270 0
DWIDTH 4 0
BBX 4 15 0 -3
BITMAP
14
3D
3D
3D
3D
3D
3D
3D
3D
3D
3D
3D
34
79
29
ENDCHAR
STARTCHAR iogonek
ENCODING 303
SWIDTH 235 0
DWIDTH 4 0
BBX 4 15 0 -3
BITMAP
7C
7D
28
14
7C
7C
7C
7C
7C
7C
7C
7C
70
B9
29
ENDCHAR
STARTCHAR Idotaccent
ENCODING 304
SWIDTH 270 0
DWIDTH 4 0
BBX 3 14 1 0
BITMAP
50
B0
50
F4
F4
F4
F4
F4
F4
F4
F4
F4
F4
F4
ENDCHAR
STARTCHAR dotlessi
ENCODING 305
SWIDTH 235 0
DWIDTH 4 0
BBX 3 9 0 0
BITMAP
14
7C
7C
7C
7C
7C
7C
7C
7C
ENDCHAR
STARTCHAR IJ
ENCODING 306
SWIDTH 687 0
DWIDTH 11 0
BBX 9 12 1 0
BITMAP
500140
F403C0
F403C0
F403C0
F403C0
F403C0
F403C0
F403C0
F407C0
F55F80
F6FE00
F5F800
ENDCHAR
STARTCHAR ij
ENCODING 307
SWIDTH 474 0
DWIDTH 8 0
BBX 7 16 0 -4
BITMAP
7C78
7DBC
2864
1414
7C78
7C78
7C78
7C78
7C78
7C78
7C78
7CB8
01F4
2FE0
2F80
0400
ENDCHAR
STARTCHAR Jcircumflex
ENCODING 308
SWIDTH 416 0
DWIDTH 7 0
BBX 7 15 0 0
BITMAP
01D0
07F4
0224
0040
01E0
01E0
01E0
01E0
01E0
01E0
01E0
02E0
5BD0
FF80
B900
ENDCHAR
STARTCHAR jcircumflex
ENCODING 309
SWIDTH 237 0
DWIDTH 4 0
BBX 7 16 -3 -4
BITMAP
00A0
02F8
0258
0050
01F0
01F0
01F0
01F0
01F0
01F0
01F0
01F0
02E0
7FC0
7E40
1000
ENDCHAR
STARTCHAR Kcommaaccent
ENCODING 310
SWIDTH 625 0
DWIDTH 10 0
BBX 9 16 1 -4
BITMAP
500140
F40F40
F42E00
F4BC00
F5F400
F7E000
FFF000
FFF800
FD7C00
F43E00
F41F40
F40B80
000000
03C000
02C000
018000
ENDCHAR
STARTCHAR kcommaaccent
ENCODING 311
SWIDTH 539 0
DWIDTH 9 0
BBX 9 16 0 -4
BITMAP
280000
7C0000
7C0000
7C0500
7C2F00
7C7C00
7CF400
7FF000
7FF800
7F7D00
7D2E00
7C0F40
000000
02D000
01D000
008000
ENDCHAR
STARTCHAR kgreenlandic
ENCODING 312
SWIDTH 539 0
DWIDTH 9 0
BBX 9 9 0 0
BITMAP
140500
7C2F00
7C7C00
7CF400
7FF000
7FF800
7F7D00
7D2E00
7C0F40
ENDCHAR
STARTCHAR Lacute
ENCODING 313
SWIDTH 562 0
DWIDTH 9 0
BBX 8 14 1 0
BITMAP
01D0
07E0
5740
F400
F400
F400
F400
F400
F400
F400
F400
F555
FFFF
FFFF
ENDCHAR
STARTCHAR lacute
ENCODING 314
SWIDTH 235 0
DWIDTH 4 0
BBX 5 15 0 0
BITMAP
0240
0F80
0D00
2800
7C00
7C00
7C00
7C00
7C00
7C00
7C00
7C00
7C00
7C00
7C00
ENDCHAR
STARTCHAR Lcommaaccent
ENCODING 315
SWIDTH 562 0
DWIDTH 9 0
BBX 8 16 1 -4
BITMAP
5000
F400
F400
F400
F400
F400
F400
F400
F400
F555
FFFF
FFFF
0100
0740
0740
0200
ENDCHAR
STARTCHAR lcommaaccent
ENCODING 316
SWIDTH 235 0
DWIDTH 4 0
BBX 3 16 0 -4
BITMAP
28
7C
7C
7C
7C
7C
7C
7C
7C
7C
7C
7C
00
3C
2C
14
ENDCHAR
STARTCHAR Lcaron
ENCODING 317
SWIDTH 562 0
DWIDTH 9 0
BBX 8 12 1 0
BITMAP
5000
F6D0
F5D0
F4C0
F400
F400
F400
F400
F400
F555
FFFF
FFFF
ENDCHAR
STARTCHAR lcaron
ENCODING 318
SWIDTH 369 0
DWIDTH 6 0
BBX 6 12 0 0
BITMAP
2800
7CE0
7CE0
7C90
7C00
7C00
7C00
7C00
7C00
7C00
7C00
7C00
ENDCHAR
STARTCHAR Ldot
ENCODING 319
SWIDTH 745 0
DWIDTH 12 0
BBX 10 12 1 0
BITMAP
500000
F40000
F40000
F40000
F40000
F400E0
F401F0
F40090
F40000
F55500
FFFF00
FFFF00
ENDCHAR
STARTCHAR ldotaccent
ENCODING 320
SWIDTH 463 0
DWIDTH 7 0
BBX 7 12 0 0
BITMAP
2800
7C00
7C00
7C00
7C00
7CB4
7CF8
7C64
7C00
7C00
7C00
7C00
ENDCHAR
STARTCHAR Lslash
ENCODING 321
SWIDTH 585 0
DWIDTH 9 0
BBX 10 12 0 0
BITMAP
040000
2E0000
2E0000
2E0000
2E8000
2FC000
BF4000
FE0000
6E0000
2E5540
2FFFD0
2FFFD0
ENDCHAR
STARTCHAR lslash
ENCODING 322
SWIDTH 319 0
DWIDTH 5 0
BBX 5 12 0 0
BITMAP
1900
2E00
2E00
2E00
2E80
2FC0
BF40
FE00
6E00
2E00
2E00
2E00
ENDCHAR
STARTCHAR Nacute
ENCODING 323
SWIDTH 689 0
DWIDTH 11 0
BBX 9 15 1 0
BITMAP
002400
00BC00
00E000
500140
F807C0
FD07C0
FF07C0
FF87C0
F7D7C0
F6E7C0
F4FBC0
F47FC0
F43FC0
F41FC0
F40BC0
ENDCHAR
STARTCHAR nacute
ENCODING 324
SWIDTH 562 0
DWIDTH 9 0
BBX 9 12 0 0
BITMAP
001800
00BD00
00A000
119000
7BFC00
7FBE00
7D0F40
7C0F40
7C0F40
7C0F40
7C0F40
7C0F40
ENDCHAR
STARTCHAR Ncommaaccent
ENCODING 325
SWIDTH 689 0
DWIDTH 11 0
BBX 9 16 1 -4
BITMAP
500140
F807C0
FD07C0
FF07C0
FF87C0
F7D7C0
F6E7C0
F4FBC0
F47FC0
F43FC0
F41FC0
F40BC0
004000
01D000
01D000
008000
ENDCHAR
STARTCHAR ncommaaccent
ENCODING 326
SWIDTH 562 0
DWIDTH 9 0
BBX 9 13 0 -4
BITMAP
115000
7BFC00
7FBE00
7D0F40
7C0F40
7C0F40
7C0F40
7C0F40
7C0F40
004000
01D000
01D000
008000
ENDCHAR
STARTCHAR Ncaron
ENCODING 327
SWIDTH 689 0
DWIDTH 11 0
BBX 9 14 1 0
BITMAP
077400
02E000
508140
F807C0
FD07C0
FF07C0
FF87C0
F7D7C0
F6E7C0
F4FBC0
F47FC0
F43FC0
F41FC0
F40BC0
ENDCHAR
STARTCHAR ncaron
ENCODING 328
SWIDTH 562 0
DWIDTH 9 0
BBX 9 12 0 0
BITMAP
077400
02E000
008000
115000
7BFC00
7FBE00
7D0F40
7C0F40
7C0F40
7C0F40
7C0F40
7C0F40
ENDCHAR
STARTCHAR napostrophe
ENCODING 329
SWIDTH 694 0
DWIDTH 11 0
BBX 11 11 0 0
BITMAP
F00000
B00000
611500
03BFD0
03FBF0
03D0F4
03C0B4
03C0B4
03C0B4
03C0B4
03C0B4
ENDCHAR
STARTCHAR Eng
ENCODING 330
SWIDTH 689 0
DWIDTH 11 0
BBX 9 16 1 -4
BITMAP
500140
F807C0
FD07C0
FF07C0
FF87C0
F7D7C0
F6E7C0
F4FBC0
F47FC0
F43FC0
F41FC0
F40BC0
001F80
02FF00
02F800
004000
ENDCHAR
STARTCHAR eng
ENCODING 331
SWIDTH 562 0
DWIDTH 9 0
BBX 9 13 0 -4
BITMAP
115000
7BFC00
7FBE00
7D0F40
7C0F40
7C0F40
7C0F40
7C0F40
7C0F40
002F00
03FD00
03F400
010000
ENDCHAR
STARTCHAR Omacron
ENCODING 332
SWIDTH 777 0
DWIDTH 12 0
BBX 12 15 0 -1
BITMAP
001500
00BF40
006A00
02FF90
0FFFF4
2F40BD
7D003E
78001F
B8001F
7C001F
3D003E
2F81FC
0BFFF4
02FF90
000400
ENDCHAR
STARTCHAR omacron
ENCODING 333
SWIDTH 579 0
DWIDTH 9 0
BBX 9 12 0 0
BITMAP
015000
07F800
015400
02A400
1FFE00
3EAF40
7C0B80
B807C0
B80780
7D1F80
2FFF00
07F800
ENDCHAR
STARTCHAR Obreve
ENCODING 334
SWIDTH 777 0
DWIDTH 12 0
BBX 12 15 0 -1
BITMAP
006600
007F00
001900
02FF90
0FFFF4
2F40BD
7D003E
78001F
B8001F
7C001F
3D003E
2F81FC
0BFFF4
02FF90
000400
ENDCHAR
STARTCHAR obreve
ENCODING 335
SWIDTH 579 0
DWIDTH 9 0
BBX 9 12 0 0
BITMAP
036400
03F400
005000
02A400
1FFE00
3EAF40
7C0B80
B807C0
B80780
7D1F80
2FFF00
07F800
ENDCHAR
STARTCHAR Ohungarumlaut
ENCODING 336
SWIDTH 777 0
DWIDTH 12 0
BBX 12 17 0 -1
BITMAP
002440
007DE0
00F7D0
004240
001400
02FF90
0FFFF4
2F40BD
7D003E
78001F
B8001F
7C001F
3D003E
2F81FC
0BFFF4
02FF90
000400
ENDCHAR
STARTCHAR ohungarumlaut
ENCODING 337
SWIDTH 579 0
DWIDTH 9 0
BBX 9 13 0 0
BITMAP
008100
02EF40
07AE00
011800
02A400
1FFE00
3EAF40
7C0B80
B807C0
B80780
7D1F80
2FFF00
07F800
ENDCHAR
STARTCHAR OE
ENCODING 338
SWIDTH 1125 0
DWIDTH 18 0
BBX 18 13 0 -1
BITMAP
0015055540
02FFDFFFD0
0FFFFFFFD0
2F40BF0000
7D003F0000
78001FAA00
B8001FFE00
7C001FA900
3D003F0000
2F81FF5540
0BFFFFFFD0
02FF9FFFD0
0004000000
ENDCHAR
STARTCHAR oe
ENCODING 339
SWIDTH 924 0
DWIDTH 15 0
BBX 15 9 0 0
BITMAP
02A41A40
1FFEBFF0
3EAFFAF4
7C0BD3D0
B807CB80
B807EE00
7D1FFCA0
2FFFFFF4
07F87FD0
ENDCHAR
STARTCHAR Racute
ENCODING 340
SWIDTH 651 0
DWIDTH 10 0
BBX 9 15 1 0
BITMAP
007000
01F800
01D000
554000
FFF800
FFFF00
F41F80
F407C0
F407C0
F40B80
F9AF40
FFFE00
FABC00
F43E00
F41F00
ENDCHAR
STARTCHAR racute
ENCODING 341
SWIDTH 414 0
DWIDTH 7 0
BBX 7 12 0 0
BITMAP
0090
02F0
0380
1150
7BF4
7FA4
7D00
7C00
7C00
7C00
7C00
7C00
ENDCHAR
STARTCHAR Rcommaaccent
ENCODING 342
SWIDTH 651 0
DWIDTH 10 0
BBX 9 16 1 -4
BITMAP
554000
FFF800
FFFF00
F41F80
F407C0
F407C0
F40B80
F9AF40
FFFE00
FABC00
F43E00
F41F00
000000
02D000
01D000
008000
ENDCHAR
STARTCHAR rcommaaccent
ENCODING 343
SWIDTH 414 0
DWIDTH 7 0
BBX 7 13 0 -4
BITMAP
1150
7BF4
7FA4
7D00
7C00
7C00
7C00
7C00
7C00
0000
3800
2800
2400
ENDCHAR
STARTCHAR Rcaron
ENCODING 344
SWIDTH 651 0
DWIDTH 10 0
BBX 9 15 1 0
BITMAP
0A7000
07E000
008000
554000
FFF800
FFFF00
F41F80
F407C0
F407C0
F40B80
F9AF40
FFFE00
FABC00
F43E00
F41F00
ENDCHAR
STARTCHAR rcaron
ENCODING 345
SWIDTH 414 0
DWIDTH 7 0
BBX 7 12 0 0
BITMAP
29D0
1F80
0200
1150
7BF4
7FA4
7D00
7C00
7C00
7C00
7C00
7C00
ENDCHAR
STARTCHAR Sacute
ENCODING 346
SWIDTH 610 0
DWIDTH 10 0
BBX 10 15 0 0
BITMAP
001C00
007E00
007400
015540
1FFFC0
3FFFC0
BC0000
B80000
7EA900
2FFF40
05ABC0
0003D0
1557D0
3FFF80
3FFE00
ENDCHAR
STARTCHAR sacute
ENCODING 347
SWIDTH 523 0
DWIDTH 8 0
BBX 8 12 0 0
BITMAP
0024
00BC
00E0
0555
2FFE
7EA9
7800
3FFD
1BFF
001F
7FFE
7FF8
ENDCHAR
STARTCHAR Scircumflex
ENCODING 348
SWIDTH 610 0
DWIDTH 10 0
BBX 10 15 0 0
BITMAP
00A000
02F800
025400
015540
1FFFC0
3FFFC0
BC0000
B80000
7EA900
2FFF40
05ABC0
0003D0
1557D0
3FFF80
3FFE00
ENDCHAR
STARTCHAR scircumflex
ENCODING 349
SWIDTH 523 0
DWIDTH 8 0
BBX 8 12 0 0
BITMAP
0280
0BF0
0560
0555
2FFE
7EA9
7800
3FFD
1BFF
001F
7FFE
7FF8
ENDCHAR
STARTCHAR Scedilla
ENCODING 350
SWIDTH 610 0
DWIDTH 10 0
BBX 10 16 0 -4
BITMAP
015540
1FFFC0
3FFFC0
BC0000
B80000
7EA900
2FFF40
05ABC0
0003D0
1557D0
3FFF80
3FFE00
00A000
007400
02F400
019000
ENDCHAR
STARTCHAR scedilla
ENCODING 351
SWIDTH 523 0
DWIDTH 8 0
BBX 8 13 0 -4
BITMAP
0555
2FFE
7EA9
7800
3FFD
1BFF
001F
7FFE
7FF8
01C0
01E0
07E0
0180
ENDCHAR
STARTCHAR Scaron
ENCODING 352
SWIDTH 610 0
DWIDTH 10 0
BBX 10 15 0 0
BITMAP
03A800
02F400
005000
015540
1FFFC0
3FFFC0
BC0000
B80000
7EA900
2FFF40
05ABC0
0003D0
1557D0
3FFF80
3FFE00
ENDCHAR
STARTCHAR scaron
ENCODING 353
SWIDTH 523 0
DWIDTH 8 0
BBX 8 12 0 0
BITMAP
0774
03E0
0080
0555
2FFE
7EA9
7800
3FFD
1BFF
001F
7FFE
7FF8
ENDCHAR
STARTCHAR Tcommaaccent
ENCODING 354
SWIDTH 578 0
DWIDTH 9 0
BBX 9 16 0 -4
BITMAP
555540
FFFFC0
FFFFC0
02E000
01E000
01E000
01E000
01E000
01E000
01E000
01E000
01E000
000000
01E000
00E000
009000
ENDCHAR
STARTCHAR tcommaaccent
ENCODING 355
SWIDTH 437 0
DWIDTH 7 0
BBX 7 16 0 -4
BITMAP
2900
2D00
2D00
6E54
BFF8
BFA4
2D00
2D00
2D00
1F40
0FF8
02F8
0100
0740
0740
0200
ENDCHAR
STARTCHAR Tcaron
ENCODING 356
SWIDTH 578 0
DWIDTH 9 0
BBX 9 15 0 0
BITMAP
077400
02F000
008000
555540
FFFFC0
FFFFC0
02E000
01E000
01E000
01E000
01E000
01E000
01E000
01E000
01E000
ENDCHAR
STARTCHAR tcaron
ENCODING 357
SWIDTH 570 0
DWIDTH 9 0
BBX 9 12 0 0
BITMAP
290000
2D03C0
2D02C0
6E5580
BFF800
BFA400
2D0000
2D0000
2D0000
1F4000
0FF800
02F800
ENDCHAR
STARTCHAR Tbar
ENCODING 358
SWIDTH 578 0
DWIDTH 9 0
BBX 9 12 0 0
BITMAP
555540
FFFFC0
FFFFC0
02E000
01E000
01E000
0BF800
0BFC00
06E400
01E000
01E000
01E000
ENDCHAR
STARTCHAR tbar
ENCODING 359
SWIDTH 437 0
DWIDTH 7 0
BBX 7 12 0 0
BITMAP
2900
2D00
2D00
6E54
BFF8
BFA4
6E40
BFC0
7E80
1F40
0FF8
02F8
ENDCHAR
STARTCHAR Utilde
ENCODING 360
SWIDTH 673 0
DWIDTH 11 0
BBX 9 14 1 0
BITMAP
0BAC00
0EFC00
596540
F007C0
F007C0
F007C0
F007C0
F007C0
F007C0
F407C0
F40B80
BD6F40
2FFE00
0BF400
ENDCHAR
STARTCHAR utilde
ENCODING 361
SWIDTH 562 0
DWIDTH 9 0
BBX 9 12 0 0
BITMAP
0B9C00
0FFC00
092400
140500
780F40
780F40
780F40
780F40
7C0F40
3D2F40
2FFF40
0BF640
ENDCHAR
STARTCHAR Umacron
ENCODING 362
SWIDTH 673 0
DWIDTH 11 0
BBX 9 14 1 0
BITMAP
015000
0BF400
555540
F007C0
F007C0
F007C0
F007C0
F007C0
F007C0
F407C0
F40B80
BD6F40
2FFE00
0BF400
ENDCHAR
STARTCHAR umacron
ENCODING 363
SWIDTH 562 0
DWIDTH 9 0
BBX 9 11 0 0
BITMAP
015000
07F400
195900
780F40
780F40
780F40
780F40
7C0F40
3D2F40
2FFF40
0BF640
ENDCHAR
STARTCHAR Ubreve
ENCODING 364
SWIDTH 673 0
DWIDTH 11 0
BBX 9 14 1 0
BITMAP
077000
03F000
504140
F007C0
F007C0
F007C0
F007C0
F007C0
F007C0
F407C0
F40B80
BD6F40
2FFE00
0BF400
ENDCHAR
STARTCHAR ubreve
ENCODING 365
SWIDTH 562 0
DWIDTH 9 0
BBX 9 11 0 0
BITMAP
077000
03F000
144500
780F40
780F40
780F40
780F40
7C0F40
3D2F40
2FFF40
0BF640
ENDCHAR
STARTCHAR Uring
ENCODING 366
SWIDTH 673 0
DWIDTH 11 0
BBX 9 15 1 0
BITMAP
004000
03E000
037000
519140
F007C0
F007C0
F007C0
F007C0
F007C0
F007C0
F407C0
F40B80
BD6F40
2FFE00
0BF400
ENDCHAR
STARTCHAR uring
ENCODING 367
SWIDTH 562 0
DWIDTH 9 0
BBX 9 13 0 0
BITMAP
004000
02E000
037000
019000
140500
780F40
780F40
780F40
780F40
7C0F40
3D2F40
2FFF40
0BF640
ENDCHAR
STARTCHAR Uhungarumlaut
ENCODING 368
SWIDTH 673 0
DWIDTH 11 0
BBX 9 15 1 0
BITMAP
018400
03DF00
0B7D00
512540
F007C0
F007C0
F007C0
F007C0
F007C0
F007C0
F407C0
F40B80
BD6F40
2FFE00
0BF400
ENDCHAR
STARTCHAR uhungarumlaut
ENCODING 369
SWIDTH 562 0
DWIDTH 9 0
BBX 9 13 0 0
BITMAP
018400
03EF00
0B6E00
011400
140500
780F40
780F40
780F40
780F40
7C0F40
3D2F40
2FFF40
0BF640
ENDCHAR
STARTCHAR Uogonek
ENCODING 370
SWIDTH 673 0
DWIDTH 11 0
BBX 9 15 1 -3
BITMAP
500140
F007C0
F007C0
F007C0
F007C0
F007C0
F007C0
F407C0
F40B80
BD6F40
2FFE00
0BF400
034000
079000
029000
ENDCHAR
STARTCHAR uogonek
ENCODING 371
SWIDTH 562 0
DWIDTH 9 0
BBX 9 12 0 -3
BITMAP
140500
780F40
780F40
780F40
780F40
7C0F40
3D2F40
2FFF40
0BF640
000B00
000B80
000680
ENDCHAR
STARTCHAR Wcircumflex
ENCODING 372
SWIDTH 819 0
DWIDTH 13 0
BBX 11 15 1 0
BITMAP
007400
01FD00
008900
501014
F4B83C
F4B83C
F4B83C
F4B83C
F4B83C
F4B83C
F4B83C
F4B83C
F8BD7C
BFFFF8
2FDFE0
ENDCHAR
STARTCHAR wcircumflex
ENCODING 373
SWIDTH 756 0
DWIDTH 12 0
BBX 12 12 0 0
BITMAP
002800
00BE00
005600
141414
7C3C2D
7C3C2D
7C3C2D
7C3C2D
7C3C2D
3C7D3D
2FFFFC
0BEBE4
ENDCHAR
STARTCHAR Ycircumflex
ENCODING 374
SWIDTH 620 0
DWIDTH 10 0
BBX 10 14 0 0
BITMAP
00A000
02F800
125840
B802D0
B802D0
B802D0
7803D0
7D07D0
2FAF80
0BFE00
01F400
00F000
00F000
00F000
ENDCHAR
STARTCHAR ycircumflex
ENCODING 375
SWIDTH 562 0
DWIDTH 9 0
BBX 9 16 0 -4
BITMAP
01D000
07F400
022400
140500
780F40
780F40
780F40
780F40
7C0F40
3D2F40
2FFF40
0BFF00
006F00
03FD00
07F400
010000
ENDCHAR
STARTCHAR Ydieresis
ENCODING 376
SWIDTH 620 0
DWIDTH 10 0
BBX 10 14 0 0
BITMAP
010400
076D00
150540
B802D0
B802D0
B802D0
7803D0
7D07D0
2FAF80
0BFE00
01F400
00F000
00F000
00F000
ENDCHAR
STARTCHAR Zacute
ENCODING 377
SWIDTH 586 0
DWIDTH 9 0
BBX 9 15 0 0
BITMAP
001C00
007D00
00A400
155540
BFFF80
BFFF00
003E00
00BC00
01F800
02F000
07D000
0BC000
1F9540
2FFFC0
7FFFC0
ENDCHAR
STARTCHAR zacute
ENCODING 378
SWIDTH 481 0
DWIDTH 8 0
BBX 8 12 0 0
BITMAP
0070
01F4
01D0
5554
BFFC
6AF4
02E0
03D0
0B80
1F40
2FFD
7FFD
ENDCHAR
STARTCHAR Zdotaccent
ENCODING 379
SWIDTH 586 0
DWIDTH 9 0
BBX 9 14 0 0
BITMAP
009000
01E000
159540
BFFF80
BFFF00
003E00
00BC00
01F800
02F000
07D000
0BC000
1F9540
2FFFC0
7FFFC0
ENDCHAR
STARTCHAR zdotaccent
ENCODING 380
SWIDTH 481 0
DWIDTH 8 0
BBX 8 11 0 0
BITMAP
0140
0380
5694
BFFC
6AF4
02E0
03D0
0B80
1F40
2FFD
7FFD
ENDCHAR
STARTCHAR Zcaron
ENCODING 381
SWIDTH 586 0
DWIDTH 9 0
BBX 9 15 0 0
BITMAP
076800
02F400
009000
155540
BFFF80
BFFF00
003E00
00BC00
01F800
02F000
07D000
0BC000
1F9540
2FFFC0
7FFFC0
ENDCHAR
STARTCHAR zcaron
ENCODING 382
SWIDTH 481 0
DWIDTH 8 0
BBX 8 12 0 0
BITMAP
0EA0
0BD0
0140
5554
BFFC
6AF4
02E0
03D0
0B80
1F40
2FFD
7FFD
ENDCHAR
STARTCHAR AEacute
ENCODING 508
SWIDTH 988 0
DWIDTH 16 0
BBX 15 15 1 0
BITMAP
0000A000
0002F400
00028000
00555550
1BFFFFF4
3FFFFFF4
BD07C000
F407C000
F007EA40
F007FF80
F95BEA40
FFFFC000
FAAFD550
F007FFF4
F007FFF4
ENDCHAR
STARTCHAR aeacute
ENCODING 509
SWIDTH 976 0
DWIDTH 16 0
BBX 15 12 0 0
BITMAP
00002400
0000BC00
0000E000
02A04690
1FFEFFF8
3EAFFEFC
7C0BF1F4
B807E3D0
B807FB80
7D1FFE28
2FFFFFFC
0BF89FE4
ENDCHAR
STARTCHAR Oslashacute
ENCODING 510
SWIDTH 777 0
DWIDTH 12 0
BBX 12 16 0 -1
BITMAP
000340
001F80
001D00
001414
02FFF8
0FFFF8
2F42FD
7D07AE
781F1F
B83D1F
7CB41F
3EE03E
2FD1FC
0FFFF4
2EFF90
000400
ENDCHAR
STARTCHAR oslashacute
ENCODING 511
SWIDTH 579 0
DWIDTH 9 0
BBX 9 12 0 0
BITMAP
001800
00BD00
00A000
02A540
1FFF40
3EBF40
7C7F80
B9F7C0
BBD780
7F5F80
2FFF00
7FF800
ENDCHAR
STARTCHAR dotlessj
ENCODING 567
SWIDTH 237 0
DWIDTH 4 0
BBX 6 13 -3 -4
BITMAP
0050
01F0
01F0
01F0
01F0
01F0
01F0
01F0
01F0
02E0
7FC0
7E40
1000
ENDCHAR
STARTCHAR circumflex
ENCODING 710
SWIDTH 267 0
DWIDTH 4 0
BBX 4 3 0 8
BITMAP
28
BE
56
ENDCHAR
STARTCHAR caron
ENCODING 711
SWIDTH 267 0
DWIDTH 4 0
BBX 4 3 0 8
BITMAP
AB
7E
14
ENDCHAR
STARTCHAR breve
ENCODING 728
SWIDTH 220 0
DWIDTH 4 0
BBX 4 3 0 8
BITMAP
99
BD
14
ENDCHAR
STARTCHAR dotaccent
ENCODING 729
SWIDTH 125 0
DWIDTH 2 0
BBX 2 3 0 8
BITMAP
50
F0
50
ENDCHAR
STARTCHAR ring
ENCODING 730
SWIDTH 192 0
DWIDTH 3 0
BBX 3 4 0 8
BITMAP
10
B8
DC
64
ENDCHAR
STARTCHAR ogonek
ENCODING 731
SWIDTH 212 0
DWIDTH 3 0
BBX 3 4 0 -3
BITMAP
10
A0
F8
68
ENDCHAR
STARTCHAR tilde
ENCODING 732
SWIDTH 321 0
DWIDTH 5 0
BBX 5 3 0 8
BITMAP
B9C0
FFC0
9240
ENDCHAR
STARTCHAR hungarumlaut
ENCODING 733
SWIDTH 384 0
DWIDTH 6 0
BBX 6 4 0 8
BITMAP
1440
7DE0
B7D0
1240
ENDCHAR
STARTCHAR uni0312
ENCODING 786
SWIDTH 192 0
DWIDTH 3 0
BBX 3 4 0 8
BITMAP
20
74
78
10
ENDCHAR
STARTCHAR uni0315
ENCODING 789
SWIDTH 132 0
DWIDTH 2 0
BBX 2 3 0 8
BITMAP
F0
B0
60
ENDCHAR
STARTCHAR uni0326
ENCODING 806
SWIDTH 193 0
DWIDTH 3 0
BBX 3 4 0 -4
BITMAP
10
78
78
20
ENDCHAR
STARTCHAR pi
ENCODING 960
SWIDTH 555 0
DWIDTH 9 0
BBX 9 9 0 0
BITMAP
555540
BFFF80
BFBF40
1E3D00
1E3D00
1E3D00
1E3D00
1E3D00
1E3D00
ENDCHAR
STARTCHAR Wgrave
ENCODING 7808
SWIDTH 819 0
DWIDTH 13 0
BBX 11 15 1 0
BITMAP
028000
07E000
00A000
501014
F4B83C
F4B83C
F4B83C
F4B83C
F4B83C
F4B83C
F4B83C
F4B83C
F8BD7C
BFFFF8
2FDFE0
ENDCHAR
STARTCHAR wgrave
ENCODING 7809
SWIDTH 756 0
DWIDTH 12 0
BBX 12 12 0 0
BITMAP
018000
02F000
007000
141414
7C3C2D
7C3C2D
7C3C2D
7C3C2D
7C3C2D
3C7D3D
2FFFFC
0BEBE4
ENDCHAR
STARTCHAR Wacute
ENCODING 7810
SWIDTH 819 0
DWIDTH 13 0
BBX 11 15 1 0
BITMAP
000A00
002F40
002800
501014
F4B83C
F4B83C
F4B83C
F4B83C
F4B83C
F4B83C
F4B83C
F4B83C
F8BD7C
BFFFF8
2FDFE0
ENDCHAR
STARTCHAR wacute
ENCODING 7811
SWIDTH 756 0
DWIDTH 12 0
BBX 12 12 0 0
BITMAP
000240
000B80
000D00
141414
7C3C2D
7C3C2D
7C3C2D
7C3C2D
7C3C2D
3C7D3D
2FFFFC
0BEBE4
ENDCHAR
STARTCHAR Wdieresis
ENCODING 7812
SWIDTH 819 0
DWIDTH 13 0
BBX 11 14 1 0
BITMAP
014500
02CF00
519514
F4B83C
F4B83C
F4B83C
F4B83C
F4B83C
F4B83C
F4B83C
F4B83C
F8BD7C
BFFFF8
2FDFE0
ENDCHAR
STARTCHAR wdieresis
ENCODING 7813
SWIDTH 756 0
DWIDTH 12 0
BBX 12 11 0 0
BITMAP
004100
01E740
146614
7C3C2D
7C3C2D
7C3C2D
7C3C2D
7C3C2D
3C7D3D
2FFFFC
0BEBE4
ENDCHAR
STARTCHAR Ygrave
ENCODING 7922
SWIDTH 620 0
DWIDTH 10 0
BBX 10 15 0 0
BITMAP
0A0000
0F8000
028000
100040
B802D0
B802D0
B802D0
7803D0
7D07D0
2FAF80
0BFE00
01F400
00F000
00F000
00F000
ENDCHAR
STARTCHAR ygrave
ENCODING 7923
SWIDTH 562 0
DWIDTH 9 0
BBX 9 16 0 -4
BITMAP
1D0000
2F4000
074000
140500
780F40
780F40
780F40
780F40
7C0F40
3D2F40
2FFF40
0BFF00
006F00
03FD00
07F400
010000
ENDCHAR
STARTCHAR endash
ENCODING 8211
SWIDTH 418 0
DWIDTH 7 0
BBX 5 3 1 4
BITMAP
AA80
FF80
5540
ENDCHAR
STARTCHAR emdash
ENCODING 8212
SWIDTH 719 0
DWIDTH 12 0
BBX 10 3 1 4
BITMAP
AAAA90
FFFFE0
555550
ENDCHAR
STARTCHAR quoteleft
ENCODING 8216
SWIDTH 246 0
DWIDTH 4 0
BBX 4 4 0 7
BITMAP
28
38
7D
28
ENDCHAR
STARTCHAR quoteright
ENCODING 8217
SWIDTH 245 0
DWIDTH 4 0
BBX 4 4 0 7
BITMAP
7C
7D
2C
14
ENDCHAR
STARTCHAR quotesinglbase
ENCODING 8218
SWIDTH 264 0
DWIDTH 4 0
BBX 3 4 1 -2
BITMAP
F4
F4
74
60
ENDCHAR
STARTCHAR quotedblleft
ENCODING 8220
SWIDTH 445 0
DWIDTH 7 0
BBX 7 4 0 7
BITMAP
28A0
38E0
7DF4
28B4
ENDCHAR
STARTCHAR quotedblright
ENCODING 8221
SWIDTH 444 0
DWIDTH 7 0
BBX 7 4 0 7
BITMAP
7CF4
7DF4
2C74
1460
ENDCHAR
STARTCHAR quotedblbase
ENCODING 8222
SWIDTH 463 0
DWIDTH 7 0
BBX 6 4 1 -2
BITMAP
F6D0
F7E0
75D0
6180
ENDCHAR
STARTCHAR dagger
ENCODING 8224
SWIDTH 434 0
DWIDTH 7 0
BBX 7 15 0 -2
BITMAP
0A40
0B80
0B80
7FF4
7FF4
1B90
0B80
0B80
0B80
0B80
0B80
0B80
0B80
0B80
0640
ENDCHAR
STARTCHAR daggerdbl
ENCODING 8225
SWIDTH 452 0
DWIDTH 7 0
BBX 7 15 0 -2
BITMAP
0680
0B80
0B80
7FF8
7FF8
1B90
0B80
0B80
0B80
6BE4
7FF8
6BE4
0B80
0B80
0640
ENDCHAR
STARTCHAR bullet
ENCODING 8226
SWIDTH 354 0
DWIDTH 6 0
BBX 4 4 1 4
BITMAP
14
BD
BD
68
ENDCHAR
STARTCHAR ellipsis
ENCODING 8230
SWIDTH 789 0
DWIDTH 13 0
BBX 11 3 1 -1
BITMAP
F4B4B8
F4F8B8
505020
ENDCHAR
STARTCHAR perthousand
ENCODING 8240
SWIDTH 998 0
DWIDTH 16 0
BBX 16 12 0 0
BITMAP
05004000
2F82C000
76C38000
71CB0000
76DD0000
2F6C0000
04754050
00EBF2FC
01DE779D
038D374D
0B0EB7AD
0E07E1F8
ENDCHAR
STARTCHAR guilsinglleft
ENCODING 8249
SWIDTH 403 0
DWIDTH 6 0
BBX 6 8 0 0
BITMAP
01D0
07D0
1F80
7E00
7E00
0F80
03E0
0080
ENDCHAR
STARTCHAR guilsinglright
ENCODING 8250
SWIDTH 402 0
DWIDTH 6 0
BBX 5 8 1 0
BITMAP
A000
F800
3E00
0F80
1F80
7D00
F400
5000
ENDCHAR
STARTCHAR fraction
ENCODING 8260
SWIDTH 477 0
DWIDTH 8 0
BBX 8 12 0 0
BITMAP
0004
001D
0038
0074
00E0
02D0
0380
0B00
1E00
2C00
7400
B000
ENDCHAR
STARTCHAR Euro
ENCODING 8364
SWIDTH 806 0
DWIDTH 13 0
BBX 12 13 0 -1
BITMAP
000150
001FFD
00BFFF
01F809
1FFF00
2FFE00
1BD400
7FFD00
6BF800
01F819
00BFFF
001FFD
000040
ENDCHAR
STARTCHAR trademark
ENCODING 8482
SWIDTH 606 0
DWIDTH 10 0
BBX 8 5 1 7
BITMAP
5444
B9BA
2166
2166
2162
ENDCHAR
STARTCHAR partialdiff
ENCODING 8706
SWIDTH 609 0
DWIDTH 10 0
BBX 9 13 0 0
BITMAP
005000
00F400
007C00
003E00
01AF00
0FFF40
2FAF80
7C07C0
7803C0
7C07C0
3E0B80
1FFF00
07F900
ENDCHAR
STARTCHAR product
ENCODING 8719
SWIDTH 632 0
DWIDTH 10 0
BBX 10 12 0 0
BITMAP
155540
7FFFE0
7FFFE0
0F4F00
0F4F00
0F4F00
0F4F00
0F4F00
0F4F00
0F4F00
0F4F00
0F4F00
ENDCHAR
STARTCHAR minus
ENCODING 8722
SWIDTH 543 0
DWIDTH 9 0
BBX 7 3 1 4
BITMAP
AAA4
FFF8
5554
ENDCHAR
STARTCHAR infinity
ENCODING 8734
SWIDTH 771 0
DWIDTH 12 0
BBX 12 8 0 1
BITMAP
0B92E0
2FFFFC
3DBE7D
783D1E
7C3E2E
2FFFFD
1FE7F4
010040
ENDCHAR
STARTCHAR approxequal
ENCODING 8776
SWIDTH 476 0
DWIDTH 8 0
BBX 6 7 1 2
BITMAP
6890
FFE0
E7D0
5050
BDE0
FBD0
9140
ENDCHAR
STARTCHAR notequal
ENCODING 8800
SWIDTH 512 0
DWIDTH 8 0
BBX 8 11 0 0
BITMAP
0014
0078
15B8
7FFD
2BF9
03D0
7FFD
7FFD
0F00
1E00
1400
ENDCHAR
STARTCHAR fi
ENCODING 64257
SWIDTH 650 0
DWIDTH 10 0
BBX 10 13 0 0
BITMAP
005400
07FAE0
0FA7F0
2E0190
6E5550
BFFFE0
7FABE0
2E02E0
2E02E0
2E02E0
2E02E0
2E02E0
2E02E0
ENDCHAR
STARTCHAR fl
ENCODING 64258
SWIDTH 631 0
DWIDTH 10 0
BBX 10 13 0 0
BITMAP
005A80
07FFD0
0FABD0
2E03D0
6E53D0
BFF3D0
7FA3D0
2E03D0
2E03D0
2E03D0
2E03D0
2E03D0
2E03D0
ENDCHAR
STARTCHAR .notdef
ENCODING -1
SWIDTH 279 0
DWIDTH 4 0
BBX 1 1 0 0
BITMAP
00
ENDCHAR
STARTCHAR .null
ENCODING -1
SWIDTH 0 0
DWIDTH 0 0
BBX 1 1 0 0
BITMAP
00
ENDCHAR
STARTCHAR nonmarkingreturn
ENCODING -1
SWIDTH 279 0
DWIDTH 4 0
BBX 1 1 0 0
BITMAP
00
ENDCHAR
ENDFONT
